<svg xmlns="http://www.w3.org/2000/svg" xmlns:xlink="http://www.w3.org/1999/xlink" contentStyleType="text/css" data-diagram-type="DESCRIPTION" height="199px" preserveAspectRatio="none" style="width:1092px;height:199px;background:#FFFFFF;" version="1.1" viewBox="0 0 1092 199" width="1092px" zoomAndPan="magnify"><defs/><g><!--cluster Sistema de Gerenciamento--><g class="cluster" data-entity="Sistema de Gerenciamento" data-source-line="4" data-uid="ent0004" id="cluster_Sistema de Gerenciamento"><rect fill="none" height="86.54" rx="2.5" ry="2.5" style="stroke:#181818;stroke-width:1;" width="1079" x="7" y="106.8"/><text fill="#000000" font-family="sans-serif" font-size="14" font-weight="bold" lengthAdjust="spacing" textLength="212.96" x="440.02" y="121.7951">Sistema de Gerenciamento</text></g><g class="entity" data-entity="UC1" data-source-line="5" data-uid="ent0005" id="entity_UC1"><ellipse cx="97.9969" cy="159.5714" fill="#F1F1F1" rx="74.6569" ry="17.3314" style="stroke:#181818;stroke-width:0.5;"/><text fill="#000000" font-family="sans-serif" font-size="14" lengthAdjust="spacing" textLength="105.1299" x="42.432" y="163.3189">Listar Produtos</text></g><g class="entity" data-entity="UC2" data-source-line="6" data-uid="ent0006" id="entity_UC2"><ellipse cx="278.0038" cy="159.5668" fill="#F1F1F1" rx="69.9838" ry="16.3968" style="stroke:#181818;stroke-width:0.5;"/><text fill="#000000" font-family="sans-serif" font-size="14" lengthAdjust="spacing" textLength="92.7842" x="228.6117" y="163.3143">Criar Produto</text></g><g class="entity" data-entity="UC3" data-source-line="7" data-uid="ent0007" id="entity_UC3"><ellipse cx="447.0027" cy="159.5705" fill="#F1F1F1" rx="64.5027" ry="15.3005" style="stroke:#181818;stroke-width:0.5;"/><text fill="#000000" font-family="sans-serif" font-size="14" lengthAdjust="spacing" textLength="77.3145" x="405.3454" y="163.3181">Criar Caixa</text></g><g class="entity" data-entity="UC4" data-source-line="8" data-uid="ent0008" id="entity_UC4"><ellipse cx="621.0028" cy="159.5706" fill="#F1F1F1" rx="74.8028" ry="17.3606" style="stroke:#181818;stroke-width:0.5;"/><text fill="#000000" font-family="sans-serif" font-size="14" lengthAdjust="spacing" textLength="105.5059" x="565.2499" y="163.3181">Atualizar Pre&#231;o</text></g><g class="entity" data-entity="UC5" data-source-line="9" data-uid="ent0009" id="entity_UC5"><ellipse cx="807.997" cy="159.5714" fill="#F1F1F1" rx="76.857" ry="17.7714" style="stroke:#181818;stroke-width:0.5;"/><text fill="#000000" font-family="sans-serif" font-size="14" lengthAdjust="spacing" textLength="110.749" x="749.6911" y="163.3012">Deletar Produto</text></g><g class="entity" data-entity="UC6" data-source-line="10" data-uid="ent0010" id="entity_UC6"><ellipse cx="994.9971" cy="159.5694" fill="#F1F1F1" rx="74.7471" ry="17.3494" style="stroke:#181818;stroke-width:0.5;"/><text fill="#000000" font-family="sans-serif" font-size="14" lengthAdjust="spacing" textLength="105.3623" x="939.3159" y="163.317">Realizar Venda</text></g><!--entity Gerente--><g class="entity" data-entity="Gerente" data-source-line="1" data-uid="ent0002" id="entity_Gerente"><ellipse cx="447.0033" cy="14" fill="#F1F1F1" rx="8" ry="8" style="stroke:#181818;stroke-width:0.5;"/><path d="M447.0033,22 L447.0033,49 M434.0033,30 L460.0033,30 M447.0033,49 L434.0033,64 M447.0033,49 L460.0033,64 " fill="none" style="stroke:#181818;stroke-width:0.5;"/><text fill="#000000" font-family="sans-serif" font-size="14" lengthAdjust="spacing" textLength="56.8066" x="418.6" y="78.4951">Gerente</text></g><!--entity Cliente--><g class="entity" data-entity="Cliente" data-source-line="2" data-uid="ent0003" id="entity_Cliente"><ellipse cx="995.0018" cy="14" fill="#F1F1F1" rx="8" ry="8" style="stroke:#181818;stroke-width:0.5;"/><path d="M995.0018,22 L995.0018,49 M982.0018,30 L1008.0018,30 M995.0018,49 L982.0018,64 M995.0018,49 L1008.0018,64 " fill="none" style="stroke:#181818;stroke-width:0.5;"/><text fill="#000000" font-family="sans-serif" font-size="14" lengthAdjust="spacing" textLength="49.1436" x="970.43" y="78.4951">Cliente</text></g><!--link Gerente to UC1--><g class="link" data-entity-1="Gerente" data-entity-2="UC1" data-source-line="13" data-uid="lnk11" id="link_Gerente_UC1"><path d="M418.36,47.29 C369.96,52.5 269.58,66.51 191,98.8 C164.02,109.88 141.0849,125.2732 123.0049,138.8732 " fill="none" id="Gerente-to-UC1" style="stroke:#181818;stroke-width:1;"/><polygon fill="#181818" points="118.21,142.48,127.8069,140.2664,122.2058,139.4743,122.9978,133.8732,118.21,142.48" style="stroke:#181818;stroke-width:1;"/></g><!--link Gerente to UC2--><g class="link" data-entity-1="Gerente" data-entity-2="UC2" data-source-line="14" data-uid="lnk12" id="link_Gerente_UC2"><path d="M418.45,63.32 C402.65,73.69 382.69,86.88 365,98.8 C342.51,113.95 321.8727,128.1442 304.3127,140.3042 " fill="none" id="Gerente-to-UC2" style="stroke:#181818;stroke-width:1;"/><polygon fill="#181818" points="299.38,143.72,309.0564,141.8847,303.4906,140.8735,304.5019,135.3077,299.38,143.72" style="stroke:#181818;stroke-width:1;"/></g><!--link Gerente to UC3--><g class="link" data-entity-1="Gerente" data-entity-2="UC3" data-source-line="15" data-uid="lnk13" id="link_Gerente_UC3"><path d="M447,82.27 C447,103.39 447,122.55 447,138.04 " fill="none" id="Gerente-to-UC3" style="stroke:#181818;stroke-width:1;"/><polygon fill="#181818" points="447,144.04,451,135.04,447,139.04,443,135.04,447,144.04" style="stroke:#181818;stroke-width:1;"/></g><!--link Gerente to UC4--><g class="link" data-entity-1="Gerente" data-entity-2="UC4" data-source-line="16" data-uid="lnk14" id="link_Gerente_UC4"><path d="M475.73,63.46 C509.52,85.58 559.9699,118.6139 591.6999,139.3839 " fill="none" id="Gerente-to-UC4" style="stroke:#181818;stroke-width:1;"/><polygon fill="#181818" points="596.72,142.67,591.3806,134.3941,592.5366,139.9316,586.9991,141.0876,596.72,142.67" style="stroke:#181818;stroke-width:1;"/></g><!--link Gerente to UC5--><g class="link" data-entity-1="Gerente" data-entity-2="UC5" data-source-line="17" data-uid="lnk15" id="link_Gerente_UC5"><path d="M475.53,47.06 C525.3,52.01 630.54,65.75 713,98.8 C740.31,109.74 763.6279,125.0132 782.1179,138.6232 " fill="none" id="Gerente-to-UC5" style="stroke:#181818;stroke-width:1;"/><polygon fill="#181818" points="786.95,142.18,782.073,133.6234,782.9232,139.216,777.3306,140.0662,786.95,142.18" style="stroke:#181818;stroke-width:1;"/></g><!--link Cliente to UC6--><g class="link" data-entity-1="Cliente" data-entity-2="UC6" data-source-line="18" data-uid="lnk16" id="link_Cliente_UC6"><path d="M995,82.27 C995,102.49 995,120.4 995,135.99 " fill="none" id="Cliente-to-UC6" style="stroke:#181818;stroke-width:1;"/><polygon fill="#181818" points="995,141.99,999,132.99,995,136.99,991,132.99,995,141.99" style="stroke:#181818;stroke-width:1;"/></g><!--SRC=[RT2n2i8m483XFKznTEzWRJiA4i75GHJTZ_IGGDf0SWLHV1uVn1Spn1H9DTiF7tVaKB5ri2L70vF0MDBeMCAHOXmkXg0uQi_K8tJqmKfZ7v0ju2uWlD6JGX_WBa1qi7Us6zdw0j33IIvo99t-caIgVqIYlc82onoiUKIZRt4ElPxJc3fN6pB4FxkQ71qeJJhJq4thMl4G8Xq6od8LVv5tDUlbhEjPDoATDdNx1W00]--></g></svg>