<svg xmlns="http://www.w3.org/2000/svg" xmlns:xlink="http://www.w3.org/1999/xlink" contentStyleType="text/css" data-diagram-type="ACTIVITY" height="750px" preserveAspectRatio="none" style="width:521px;height:750px;background:#FFFFFF;" version="1.1" viewBox="0 0 521 750" width="521px" zoomAndPan="magnify"><defs/><g><ellipse cx="257.7969" cy="20" fill="#222222" rx="10" ry="10" style="stroke:#222222;stroke-width:1;"/><rect fill="#F1F1F1" height="33.9688" rx="12.5" ry="12.5" style="stroke:#181818;stroke-width:0.5;" width="263.0645" x="126.2646" y="50"/><text fill="#000000" font-family="sans-serif" font-size="12" lengthAdjust="spacing" textLength="243.0645" x="136.2646" y="71.1387">Usu&#225;rio solicita a cria&#231;&#227;o de um produto</text><polygon fill="#F1F1F1" points="208.4688,103.9688,307.125,103.9688,319.125,115.9688,307.125,127.9688,208.4688,127.9688,196.4688,115.9688,208.4688,103.9688" style="stroke:#181818;stroke-width:0.5;"/><text fill="#000000" font-family="sans-serif" font-size="11" lengthAdjust="spacing" textLength="98.6563" x="208.4688" y="119.7769">Produto j&#225; existe?</text><text fill="#000000" font-family="sans-serif" font-size="11" lengthAdjust="spacing" textLength="20.7539" x="175.7148" y="113.3745">Sim</text><text fill="#000000" font-family="sans-serif" font-size="11" lengthAdjust="spacing" textLength="21.6992" x="319.125" y="113.3745">N&#227;o</text><rect fill="#F1F1F1" height="33.9688" rx="12.5" ry="12.5" style="stroke:#181818;stroke-width:0.5;" width="201.582" x="63.3315" y="137.9688"/><text fill="#000000" font-family="sans-serif" font-size="12" lengthAdjust="spacing" textLength="181.582" x="73.3315" y="159.1074">Atualizar pre&#231;o ou quantidade</text><rect fill="#F1F1F1" height="33.9688" rx="12.5" ry="12.5" style="stroke:#181818;stroke-width:0.5;" width="133.1152" x="284.9136" y="137.9688"/><text fill="#000000" font-family="sans-serif" font-size="12" lengthAdjust="spacing" textLength="113.1152" x="294.9136" y="159.1074">Criar novo produto</text><polygon fill="#F1F1F1" points="257.7969,177.9375,269.7969,189.9375,257.7969,201.9375,245.7969,189.9375,257.7969,177.9375" style="stroke:#181818;stroke-width:0.5;"/><rect fill="#F1F1F1" height="33.9688" rx="12.5" ry="12.5" style="stroke:#181818;stroke-width:0.5;" width="236.4746" x="139.5596" y="221.9375"/><text fill="#000000" font-family="sans-serif" font-size="12" lengthAdjust="spacing" textLength="216.4746" x="149.5596" y="243.0762">Usu&#225;rio solicita cria&#231;&#227;o de um caixa</text><rect fill="#F1F1F1" height="33.9688" rx="12.5" ry="12.5" style="stroke:#181818;stroke-width:0.5;" width="261.3652" x="127.1143" y="275.9063"/><text fill="#000000" font-family="sans-serif" font-size="12" lengthAdjust="spacing" textLength="241.3652" x="137.1143" y="297.0449">Caixa &#233; armazenado no banco de dados</text><rect fill="#F1F1F1" height="33.9688" rx="12.5" ry="12.5" style="stroke:#181818;stroke-width:0.5;" width="183.0078" x="166.293" y="329.875"/><text fill="#000000" font-family="sans-serif" font-size="12" lengthAdjust="spacing" textLength="163.0078" x="176.293" y="351.0137">Usu&#225;rio solicita uma venda</text><polygon fill="#F1F1F1" points="198.0354,383.8438,317.5583,383.8438,329.5583,395.8438,317.5583,407.8438,198.0354,407.8438,186.0354,395.8438,198.0354,383.8438" style="stroke:#181818;stroke-width:0.5;"/><text fill="#000000" font-family="sans-serif" font-size="11" lengthAdjust="spacing" textLength="119.5229" x="198.0354" y="399.6519">Produtos dispon&#237;veis?</text><text fill="#000000" font-family="sans-serif" font-size="11" lengthAdjust="spacing" textLength="20.7539" x="165.2815" y="393.2495">Sim</text><text fill="#000000" font-family="sans-serif" font-size="11" lengthAdjust="spacing" textLength="21.6992" x="329.5583" y="393.2495">N&#227;o</text><rect fill="#F1F1F1" height="33.9688" rx="12.5" ry="12.5" style="stroke:#181818;stroke-width:0.5;" width="193.6836" x="30.9717" y="417.8438"/><text fill="#000000" font-family="sans-serif" font-size="12" lengthAdjust="spacing" textLength="173.6836" x="40.9717" y="438.9824">Calcular valor total da venda</text><rect fill="#F1F1F1" height="33.9688" rx="12.5" ry="12.5" style="stroke:#181818;stroke-width:0.5;" width="207.4824" x="24.0723" y="471.8125"/><text fill="#000000" font-family="sans-serif" font-size="12" lengthAdjust="spacing" textLength="187.4824" x="34.0723" y="492.9512">Atualizar estoque dos produtos</text><rect fill="#F1F1F1" height="33.9688" rx="12.5" ry="12.5" style="stroke:#181818;stroke-width:0.5;" width="164.2695" x="45.6787" y="525.7813"/><text fill="#000000" font-family="sans-serif" font-size="12" lengthAdjust="spacing" textLength="144.2695" x="55.6787" y="546.9199">Adicionar valor ao caixa</text><rect fill="#F1F1F1" height="33.9688" rx="12.5" ry="12.5" style="stroke:#181818;stroke-width:0.5;" width="233.627" x="11" y="579.75"/><text fill="#000000" font-family="sans-serif" font-size="12" lengthAdjust="spacing" textLength="213.627" x="21" y="600.8887">Registrar venda no banco de dados</text><rect fill="#F1F1F1" height="33.9688" rx="12.5" ry="12.5" style="stroke:#181818;stroke-width:0.5;" width="210.4707" x="22.5781" y="633.7188"/><text fill="#000000" font-family="sans-serif" font-size="12" lengthAdjust="spacing" textLength="190.4707" x="32.5781" y="654.8574">Retornar confirma&#231;&#227;o de venda</text><rect fill="#F1F1F1" height="33.9688" rx="12.5" ry="12.5" style="stroke:#181818;stroke-width:0.5;" width="246.3066" x="264.627" y="417.8438"/><text fill="#000000" font-family="sans-serif" font-size="12" lengthAdjust="spacing" textLength="226.3066" x="274.627" y="438.9824">Exibir erro de quantidade insuficiente</text><polygon fill="#F1F1F1" points="257.7969,673.6875,269.7969,685.6875,257.7969,697.6875,245.7969,685.6875,257.7969,673.6875" style="stroke:#181818;stroke-width:0.5;"/><ellipse cx="257.7969" cy="728.6875" fill="none" rx="11" ry="11" style="stroke:#222222;stroke-width:1;"/><ellipse cx="257.7969" cy="728.6875" fill="#222222" rx="6" ry="6" style="stroke:#222222;stroke-width:1;"/><line style="stroke:#181818;stroke-width:1;" x1="257.7969" x2="257.7969" y1="30" y2="50"/><polygon fill="#181818" points="253.7969,40,257.7969,50,261.7969,40,257.7969,44" style="stroke:#181818;stroke-width:1;"/><line style="stroke:#181818;stroke-width:1;" x1="196.4688" x2="164.1226" y1="115.9688" y2="115.9688"/><line style="stroke:#181818;stroke-width:1;" x1="164.1226" x2="164.1226" y1="115.9688" y2="137.9688"/><polygon fill="#181818" points="160.1226,127.9688,164.1226,137.9688,168.1226,127.9688,164.1226,131.9688" style="stroke:#181818;stroke-width:1;"/><line style="stroke:#181818;stroke-width:1;" x1="319.125" x2="351.4712" y1="115.9688" y2="115.9688"/><line style="stroke:#181818;stroke-width:1;" x1="351.4712" x2="351.4712" y1="115.9688" y2="137.9688"/><polygon fill="#181818" points="347.4712,127.9688,351.4712,137.9688,355.4712,127.9688,351.4712,131.9688" style="stroke:#181818;stroke-width:1;"/><line style="stroke:#181818;stroke-width:1;" x1="164.1226" x2="164.1226" y1="171.9375" y2="189.9375"/><line style="stroke:#181818;stroke-width:1;" x1="164.1226" x2="245.7969" y1="189.9375" y2="189.9375"/><polygon fill="#181818" points="235.7969,185.9375,245.7969,189.9375,235.7969,193.9375,239.7969,189.9375" style="stroke:#181818;stroke-width:1;"/><line style="stroke:#181818;stroke-width:1;" x1="351.4712" x2="351.4712" y1="171.9375" y2="189.9375"/><line style="stroke:#181818;stroke-width:1;" x1="351.4712" x2="269.7969" y1="189.9375" y2="189.9375"/><polygon fill="#181818" points="279.7969,185.9375,269.7969,189.9375,279.7969,193.9375,275.7969,189.9375" style="stroke:#181818;stroke-width:1;"/><line style="stroke:#181818;stroke-width:1;" x1="257.7969" x2="257.7969" y1="83.9688" y2="103.9688"/><polygon fill="#181818" points="253.7969,93.9688,257.7969,103.9688,261.7969,93.9688,257.7969,97.9688" style="stroke:#181818;stroke-width:1;"/><line style="stroke:#181818;stroke-width:1;" x1="257.7969" x2="257.7969" y1="201.9375" y2="221.9375"/><polygon fill="#181818" points="253.7969,211.9375,257.7969,221.9375,261.7969,211.9375,257.7969,215.9375" style="stroke:#181818;stroke-width:1;"/><line style="stroke:#181818;stroke-width:1;" x1="257.7969" x2="257.7969" y1="255.9063" y2="275.9063"/><polygon fill="#181818" points="253.7969,265.9063,257.7969,275.9063,261.7969,265.9063,257.7969,269.9063" style="stroke:#181818;stroke-width:1;"/><line style="stroke:#181818;stroke-width:1;" x1="257.7969" x2="257.7969" y1="309.875" y2="329.875"/><polygon fill="#181818" points="253.7969,319.875,257.7969,329.875,261.7969,319.875,257.7969,323.875" style="stroke:#181818;stroke-width:1;"/><line style="stroke:#181818;stroke-width:1;" x1="127.8135" x2="127.8135" y1="451.8125" y2="471.8125"/><polygon fill="#181818" points="123.8135,461.8125,127.8135,471.8125,131.8135,461.8125,127.8135,465.8125" style="stroke:#181818;stroke-width:1;"/><line style="stroke:#181818;stroke-width:1;" x1="127.8135" x2="127.8135" y1="505.7813" y2="525.7813"/><polygon fill="#181818" points="123.8135,515.7813,127.8135,525.7813,131.8135,515.7813,127.8135,519.7813" style="stroke:#181818;stroke-width:1;"/><line style="stroke:#181818;stroke-width:1;" x1="127.8135" x2="127.8135" y1="559.75" y2="579.75"/><polygon fill="#181818" points="123.8135,569.75,127.8135,579.75,131.8135,569.75,127.8135,573.75" style="stroke:#181818;stroke-width:1;"/><line style="stroke:#181818;stroke-width:1;" x1="127.8135" x2="127.8135" y1="613.7188" y2="633.7188"/><polygon fill="#181818" points="123.8135,623.7188,127.8135,633.7188,131.8135,623.7188,127.8135,627.7188" style="stroke:#181818;stroke-width:1;"/><line style="stroke:#181818;stroke-width:1;" x1="186.0354" x2="127.8135" y1="395.8438" y2="395.8438"/><line style="stroke:#181818;stroke-width:1;" x1="127.8135" x2="127.8135" y1="395.8438" y2="417.8438"/><polygon fill="#181818" points="123.8135,407.8438,127.8135,417.8438,131.8135,407.8438,127.8135,411.8438" style="stroke:#181818;stroke-width:1;"/><line style="stroke:#181818;stroke-width:1;" x1="329.5583" x2="387.7803" y1="395.8438" y2="395.8438"/><line style="stroke:#181818;stroke-width:1;" x1="387.7803" x2="387.7803" y1="395.8438" y2="417.8438"/><polygon fill="#181818" points="383.7803,407.8438,387.7803,417.8438,391.7803,407.8438,387.7803,411.8438" style="stroke:#181818;stroke-width:1;"/><line style="stroke:#181818;stroke-width:1;" x1="127.8135" x2="127.8135" y1="667.6875" y2="685.6875"/><line style="stroke:#181818;stroke-width:1;" x1="127.8135" x2="245.7969" y1="685.6875" y2="685.6875"/><polygon fill="#181818" points="235.7969,681.6875,245.7969,685.6875,235.7969,689.6875,239.7969,685.6875" style="stroke:#181818;stroke-width:1;"/><line style="stroke:#181818;stroke-width:1;" x1="387.7803" x2="387.7803" y1="451.8125" y2="685.6875"/><line style="stroke:#181818;stroke-width:1;" x1="387.7803" x2="269.7969" y1="685.6875" y2="685.6875"/><polygon fill="#181818" points="279.7969,681.6875,269.7969,685.6875,279.7969,689.6875,275.7969,685.6875" style="stroke:#181818;stroke-width:1;"/><line style="stroke:#181818;stroke-width:1;" x1="257.7969" x2="257.7969" y1="363.8438" y2="383.8438"/><polygon fill="#181818" points="253.7969,373.8438,257.7969,383.8438,261.7969,373.8438,257.7969,377.8438" style="stroke:#181818;stroke-width:1;"/><line style="stroke:#181818;stroke-width:1;" x1="257.7969" x2="257.7969" y1="697.6875" y2="717.6875"/><polygon fill="#181818" points="253.7969,707.6875,257.7969,717.6875,261.7969,707.6875,257.7969,711.6875" style="stroke:#181818;stroke-width:1;"/><!--SRC=[RL5BJiCm4Dtx5BDihv0i4AhO8WJY0DDu0eCSJ-jF5FKs5OkA1QVmnPY4j1KbtbZMl7a_nuGX6LEznboEWGMYE6uu8I0qWR6SogU09SWTx8BOdAGsXbjOFVs-uACSWGQEYUxMaDx9m-g5kxK1FTLzokZuW46NgPm49CC-eqziqL9jo4M2rQDgp0iRrGpWfPUh77dBxQB7MuSDye2rgJRZ3UKBC7Hu88zMb1Esw9i9gk8IwoN6t27qAeX_KqQm77VYotTF71U2Rj0rsQdr7fq4I9BGgSoPwwOCYadsMNqeyHmpda5MZOY_CA6SKqtZPthJgiCu7fcNKisu965aQSIth2rSQfeT_Ml-OU0jgxKG9jZrbu1zpAsw8f_eyXkQOFS3]--></g></svg>