<svg xmlns="http://www.w3.org/2000/svg" xmlns:xlink="http://www.w3.org/1999/xlink" contentStyleType="text/css" data-diagram-type="CLASS" height="473px" preserveAspectRatio="none" style="width:2590px;height:473px;background:#FFFFFF;" version="1.1" viewBox="0 0 2590 473" width="2590px" zoomAndPan="magnify"><defs/><g><!--class Caixa--><g class="entity" data-entity="Caixa" data-source-line="1" data-uid="ent0002" id="entity_Caixa"><rect fill="#F1F1F1" height="96.8906" rx="2.5" ry="2.5" style="stroke:#181818;stroke-width:0.5;" width="251.5176" x="918.32" y="23.29"/><ellipse cx="1020.2746" cy="39.29" fill="#ADD1B2" rx="11" ry="11" style="stroke:#181818;stroke-width:1;"/><path d="M1023.2433,44.9306 Q1022.6652,45.2275 1022.0246,45.3681 Q1021.384,45.5244 1020.6808,45.5244 Q1018.1808,45.5244 1016.8527,43.8838 Q1015.5402,42.2275 1015.5402,39.1025 Q1015.5402,35.9775 1016.8527,34.3213 Q1018.1808,32.665 1020.6808,32.665 Q1021.384,32.665 1022.0246,32.8213 Q1022.6808,32.9775 1023.2433,33.2744 L1023.2433,35.9931 Q1022.6183,35.415 1022.0246,35.1494 Q1021.4308,34.8681 1020.8058,34.8681 Q1019.4621,34.8681 1018.7746,35.9463 Q1018.0871,37.0088 1018.0871,39.1025 Q1018.0871,41.1963 1018.7746,42.2744 Q1019.4621,43.3369 1020.8058,43.3369 Q1021.4308,43.3369 1022.0246,43.0713 Q1022.6183,42.79 1023.2433,42.2119 L1023.2433,44.9306 Z " fill="#000000"/><text fill="#000000" font-family="sans-serif" font-size="14" lengthAdjust="spacing" textLength="39.1084" x="1040.7746" y="44.1367">Caixa</text><line style="stroke:#181818;stroke-width:0.5;" x1="919.32" x2="1168.8376" y1="55.29" y2="55.29"/><ellipse cx="929.32" cy="68.9384" fill="none" rx="3" ry="3" style="stroke:#038048;stroke-width:1;"/><text fill="#000000" font-family="sans-serif" font-size="14" lengthAdjust="spacing" textLength="51.3516" x="938.32" y="72.2851">Long id</text><ellipse cx="929.32" cy="85.2353" fill="none" rx="3" ry="3" style="stroke:#038048;stroke-width:1;"/><text fill="#000000" font-family="sans-serif" font-size="14" lengthAdjust="spacing" textLength="225.5176" x="938.32" y="88.582">BigDecimal quantiaArmazenada</text><ellipse cx="929.32" cy="101.5322" fill="none" rx="3" ry="3" style="stroke:#038048;stroke-width:1;"/><text fill="#000000" font-family="sans-serif" font-size="14" lengthAdjust="spacing" textLength="147.4443" x="938.32" y="104.8789">List&lt;Venda&gt; vendas</text><line style="stroke:#181818;stroke-width:0.5;" x1="919.32" x2="1168.8376" y1="112.1806" y2="112.1806"/></g><!--class Gerente--><g class="entity" data-entity="Gerente" data-source-line="7" data-uid="ent0003" id="entity_Gerente"><rect fill="#F1F1F1" height="80.5938" rx="2.5" ry="2.5" style="stroke:#181818;stroke-width:0.5;" width="111.9209" x="86.12" y="31.44"/><ellipse cx="111.5214" cy="47.44" fill="#ADD1B2" rx="11" ry="11" style="stroke:#181818;stroke-width:1;"/><path d="M114.4902,53.0806 Q113.912,53.3775 113.2714,53.5181 Q112.6308,53.6744 111.9277,53.6744 Q109.4277,53.6744 108.0995,52.0338 Q106.787,50.3775 106.787,47.2525 Q106.787,44.1275 108.0995,42.4713 Q109.4277,40.815 111.9277,40.815 Q112.6308,40.815 113.2714,40.9713 Q113.9277,41.1275 114.4902,41.4244 L114.4902,44.1431 Q113.8652,43.565 113.2714,43.2994 Q112.6777,43.0181 112.0527,43.0181 Q110.7089,43.0181 110.0214,44.0963 Q109.3339,45.1588 109.3339,47.2525 Q109.3339,49.3463 110.0214,50.4244 Q110.7089,51.4869 112.0527,51.4869 Q112.6777,51.4869 113.2714,51.2213 Q113.8652,50.94 114.4902,50.3619 L114.4902,53.0806 Z " fill="#000000"/><text fill="#000000" font-family="sans-serif" font-size="14" lengthAdjust="spacing" textLength="56.8066" x="127.8328" y="52.2867">Gerente</text><line style="stroke:#181818;stroke-width:0.5;" x1="87.12" x2="197.0409" y1="63.44" y2="63.44"/><ellipse cx="97.12" cy="77.0884" fill="none" rx="3" ry="3" style="stroke:#038048;stroke-width:1;"/><text fill="#000000" font-family="sans-serif" font-size="14" lengthAdjust="spacing" textLength="51.3516" x="106.12" y="80.4351">Long id</text><ellipse cx="97.12" cy="93.3853" fill="none" rx="3" ry="3" style="stroke:#038048;stroke-width:1;"/><text fill="#000000" font-family="sans-serif" font-size="14" lengthAdjust="spacing" textLength="85.9209" x="106.12" y="96.732">String nome</text><line style="stroke:#181818;stroke-width:0.5;" x1="87.12" x2="197.0409" y1="104.0338" y2="104.0338"/></g><!--class Produto--><g class="entity" data-entity="Produto" data-source-line="12" data-uid="ent0004" id="entity_Produto"><rect fill="#F1F1F1" height="129.4844" rx="2.5" ry="2.5" style="stroke:#181818;stroke-width:0.5;" width="204.7256" x="688.72" y="196.48"/><ellipse cx="759.5437" cy="212.48" fill="#ADD1B2" rx="11" ry="11" style="stroke:#181818;stroke-width:1;"/><path d="M762.5125,218.1206 Q761.9344,218.4175 761.2937,218.5581 Q760.6531,218.7144 759.95,218.7144 Q757.45,218.7144 756.1219,217.0738 Q754.8094,215.4175 754.8094,212.2925 Q754.8094,209.1675 756.1219,207.5113 Q757.45,205.855 759.95,205.855 Q760.6531,205.855 761.2937,206.0113 Q761.95,206.1675 762.5125,206.4644 L762.5125,209.1831 Q761.8875,208.605 761.2937,208.3394 Q760.7,208.0581 760.075,208.0581 Q758.7312,208.0581 758.0437,209.1363 Q757.3562,210.1988 757.3562,212.2925 Q757.3562,214.3863 758.0437,215.4644 Q758.7312,216.5269 760.075,216.5269 Q760.7,216.5269 761.2937,216.2613 Q761.8875,215.98 762.5125,215.4019 L762.5125,218.1206 Z " fill="#000000"/><text fill="#000000" font-family="sans-serif" font-size="14" lengthAdjust="spacing" textLength="54.5781" x="780.0437" y="217.3267">Produto</text><line style="stroke:#181818;stroke-width:0.5;" x1="689.72" x2="892.4456" y1="228.48" y2="228.48"/><ellipse cx="699.72" cy="242.1284" fill="none" rx="3" ry="3" style="stroke:#038048;stroke-width:1;"/><text fill="#000000" font-family="sans-serif" font-size="14" lengthAdjust="spacing" textLength="51.3516" x="708.72" y="245.4751">Long id</text><ellipse cx="699.72" cy="258.4253" fill="none" rx="3" ry="3" style="stroke:#038048;stroke-width:1;"/><text fill="#000000" font-family="sans-serif" font-size="14" lengthAdjust="spacing" textLength="85.9209" x="708.72" y="261.772">String nome</text><ellipse cx="699.72" cy="274.7222" fill="none" rx="3" ry="3" style="stroke:#038048;stroke-width:1;"/><text fill="#000000" font-family="sans-serif" font-size="14" lengthAdjust="spacing" textLength="131.7217" x="708.72" y="278.0689">double quantidade</text><ellipse cx="699.72" cy="291.0191" fill="none" rx="3" ry="3" style="stroke:#038048;stroke-width:1;"/><text fill="#000000" font-family="sans-serif" font-size="14" lengthAdjust="spacing" textLength="178.7256" x="708.72" y="294.3657">BigDecimal precoUnitario</text><ellipse cx="699.72" cy="307.3159" fill="none" rx="3" ry="3" style="stroke:#038048;stroke-width:1;"/><text fill="#000000" font-family="sans-serif" font-size="14" lengthAdjust="spacing" textLength="61.1748" x="708.72" y="310.6626">Tipo tipo</text><line style="stroke:#181818;stroke-width:0.5;" x1="689.72" x2="892.4456" y1="317.9644" y2="317.9644"/></g><!--class Tipo--><g class="entity" data-entity="Tipo" data-source-line="20" data-uid="ent0005" id="entity_Tipo"><rect fill="#F1F1F1" height="80.5938" rx="2.5" ry="2.5" style="stroke:#181818;stroke-width:0.5;" width="650.333" x="232.91" y="31.44"/><ellipse cx="538.8797" cy="47.44" fill="#EB937F" rx="11" ry="11" style="stroke:#181818;stroke-width:1;"/><path d="M542.9891,53.44 L535.2704,53.44 L535.2704,41.0494 L542.9891,41.0494 L542.9891,43.2056 L537.7235,43.2056 L537.7235,45.8775 L542.4891,45.8775 L542.4891,48.0338 L537.7235,48.0338 L537.7235,51.2838 L542.9891,51.2838 L542.9891,53.44 Z " fill="#000000"/><text fill="#000000" font-family="sans-serif" font-size="14" lengthAdjust="spacing" textLength="29.8936" x="559.3797" y="52.2867">Tipo</text><line style="stroke:#181818;stroke-width:0.5;" x1="233.91" x2="882.243" y1="63.44" y2="63.44"/><text fill="#000000" font-family="sans-serif" font-size="14" lengthAdjust="spacing" textLength="574.6563" x="238.91" y="80.4351">PERECIVEL, NAO_PERECIVEL, CONSUMIVEL, ROUPA, BEBIDA, PADARIA, ACOUGUE,</text><text fill="#000000" font-family="sans-serif" font-size="14" lengthAdjust="spacing" textLength="638.333" x="238.91" y="96.732">HIGIENE, LIMPEZA, ELETRONICO, PETSHOP, HORTIFRUTI, FARMACIA, LACTEO, CONGELADO</text><line style="stroke:#181818;stroke-width:0.5;" x1="233.91" x2="882.243" y1="104.0338" y2="104.0338"/></g><!--class Venda--><g class="entity" data-entity="Venda" data-source-line="25" data-uid="ent0006" id="entity_Venda"><rect fill="#F1F1F1" height="113.1875" rx="2.5" ry="2.5" style="stroke:#181818;stroke-width:0.5;" width="230.5928" x="928.78" y="204.63"/><ellipse cx="1017.5617" cy="220.63" fill="#ADD1B2" rx="11" ry="11" style="stroke:#181818;stroke-width:1;"/><path d="M1020.5305,226.2706 Q1019.9524,226.5675 1019.3117,226.7081 Q1018.6711,226.8644 1017.968,226.8644 Q1015.468,226.8644 1014.1399,225.2238 Q1012.8274,223.5675 1012.8274,220.4425 Q1012.8274,217.3175 1014.1399,215.6613 Q1015.468,214.005 1017.968,214.005 Q1018.6711,214.005 1019.3117,214.1613 Q1019.968,214.3175 1020.5305,214.6144 L1020.5305,217.3331 Q1019.9055,216.755 1019.3117,216.4894 Q1018.718,216.2081 1018.093,216.2081 Q1016.7492,216.2081 1016.0617,217.2863 Q1015.3742,218.3488 1015.3742,220.4425 Q1015.3742,222.5363 1016.0617,223.6144 Q1016.7492,224.6769 1018.093,224.6769 Q1018.718,224.6769 1019.3117,224.4113 Q1019.9055,224.13 1020.5305,223.5519 L1020.5305,226.2706 Z " fill="#000000"/><text fill="#000000" font-family="sans-serif" font-size="14" lengthAdjust="spacing" textLength="44.5293" x="1038.0617" y="225.4767">Venda</text><line style="stroke:#181818;stroke-width:0.5;" x1="929.78" x2="1158.3728" y1="236.63" y2="236.63"/><ellipse cx="939.78" cy="250.2784" fill="none" rx="3" ry="3" style="stroke:#038048;stroke-width:1;"/><text fill="#000000" font-family="sans-serif" font-size="14" lengthAdjust="spacing" textLength="51.3516" x="948.78" y="253.6251">Long id</text><ellipse cx="939.78" cy="266.5753" fill="none" rx="3" ry="3" style="stroke:#038048;stroke-width:1;"/><text fill="#000000" font-family="sans-serif" font-size="14" lengthAdjust="spacing" textLength="204.5928" x="948.78" y="269.922">LocalDateTime dataDeVenda</text><ellipse cx="939.78" cy="282.8722" fill="none" rx="3" ry="3" style="stroke:#038048;stroke-width:1;"/><text fill="#000000" font-family="sans-serif" font-size="14" lengthAdjust="spacing" textLength="154.0684" x="948.78" y="286.2189">BigDecimal valorTotal</text><ellipse cx="939.78" cy="299.1691" fill="none" rx="3" ry="3" style="stroke:#038048;stroke-width:1;"/><text fill="#000000" font-family="sans-serif" font-size="14" lengthAdjust="spacing" textLength="80.5889" x="948.78" y="302.5157">Caixa caixa</text><line style="stroke:#181818;stroke-width:0.5;" x1="929.78" x2="1158.3728" y1="309.8175" y2="309.8175"/></g><!--class GerenteController--><g class="entity" data-entity="GerenteController" data-source-line="32" data-uid="ent0007" id="entity_GerenteController"><rect fill="#F1F1F1" height="129.4844" rx="2.5" ry="2.5" style="stroke:#181818;stroke-width:0.5;" width="443.1973" x="1204.48" y="7"/><ellipse cx="1358.8389" cy="23" fill="#ADD1B2" rx="11" ry="11" style="stroke:#181818;stroke-width:1;"/><path d="M1361.8076,28.6406 Q1361.2295,28.9375 1360.5889,29.0781 Q1359.9483,29.2344 1359.2451,29.2344 Q1356.7451,29.2344 1355.417,27.5938 Q1354.1045,25.9375 1354.1045,22.8125 Q1354.1045,19.6875 1355.417,18.0313 Q1356.7451,16.375 1359.2451,16.375 Q1359.9483,16.375 1360.5889,16.5313 Q1361.2451,16.6875 1361.8076,16.9844 L1361.8076,19.7031 Q1361.1826,19.125 1360.5889,18.8594 Q1359.9951,18.5781 1359.3701,18.5781 Q1358.0264,18.5781 1357.3389,19.6563 Q1356.6514,20.7188 1356.6514,22.8125 Q1356.6514,24.9063 1357.3389,25.9844 Q1358.0264,27.0469 1359.3701,27.0469 Q1359.9951,27.0469 1360.5889,26.7813 Q1361.1826,26.5 1361.8076,25.9219 L1361.8076,28.6406 Z " fill="#000000"/><text fill="#000000" font-family="sans-serif" font-size="14" lengthAdjust="spacing" textLength="125.9795" x="1379.3389" y="27.8467">GerenteController</text><line style="stroke:#181818;stroke-width:0.5;" x1="1205.48" x2="1646.6773" y1="39" y2="39"/><line style="stroke:#181818;stroke-width:0.5;" x1="1205.48" x2="1646.6773" y1="47" y2="47"/><ellipse cx="1215.48" cy="60.6484" fill="#84BE84" rx="3" ry="3" style="stroke:#038048;stroke-width:1;"/><text fill="#000000" font-family="sans-serif" font-size="14" lengthAdjust="spacing" textLength="351.5723" x="1224.48" y="63.9951">listarProdutos(): ResponseEntity&lt;List&lt;Produto&gt;&gt;</text><ellipse cx="1215.48" cy="76.9453" fill="#84BE84" rx="3" ry="3" style="stroke:#038048;stroke-width:1;"/><text fill="#000000" font-family="sans-serif" font-size="14" lengthAdjust="spacing" textLength="279.6924" x="1224.48" y="80.292">criarProduto(produto: Produto): Produto</text><ellipse cx="1215.48" cy="93.2422" fill="#84BE84" rx="3" ry="3" style="stroke:#038048;stroke-width:1;"/><text fill="#000000" font-family="sans-serif" font-size="14" lengthAdjust="spacing" textLength="215.291" x="1224.48" y="96.5889">criarCaixa(caixa: Caixa): Caixa</text><ellipse cx="1215.48" cy="109.5391" fill="#84BE84" rx="3" ry="3" style="stroke:#038048;stroke-width:1;"/><text fill="#000000" font-family="sans-serif" font-size="14" lengthAdjust="spacing" textLength="417.1973" x="1224.48" y="112.8857">atualizarProduto(id: Long, novoPreco: BigDecimal): Produto</text><ellipse cx="1215.48" cy="125.8359" fill="#84BE84" rx="3" ry="3" style="stroke:#038048;stroke-width:1;"/><text fill="#000000" font-family="sans-serif" font-size="14" lengthAdjust="spacing" textLength="210.1914" x="1224.48" y="129.1826">deletarProduto(id: Long): void</text></g><!--class VendaController--><g class="entity" data-entity="VendaController" data-source-line="40" data-uid="ent0008" id="entity_VendaController"><rect fill="#F1F1F1" height="64.2969" rx="2.5" ry="2.5" style="stroke:#181818;stroke-width:0.5;" width="429.8398" x="2154.16" y="39.59"/><ellipse cx="2307.9788" cy="55.59" fill="#ADD1B2" rx="11" ry="11" style="stroke:#181818;stroke-width:1;"/><path d="M2310.9476,61.2306 Q2310.3695,61.5275 2309.7288,61.6681 Q2309.0882,61.8244 2308.3851,61.8244 Q2305.8851,61.8244 2304.557,60.1837 Q2303.2445,58.5275 2303.2445,55.4025 Q2303.2445,52.2775 2304.557,50.6212 Q2305.8851,48.965 2308.3851,48.965 Q2309.0882,48.965 2309.7288,49.1212 Q2310.3851,49.2775 2310.9476,49.5744 L2310.9476,52.2931 Q2310.3226,51.715 2309.7288,51.4494 Q2309.1351,51.1681 2308.5101,51.1681 Q2307.1663,51.1681 2306.4788,52.2462 Q2305.7913,53.3087 2305.7913,55.4025 Q2305.7913,57.4962 2306.4788,58.5744 Q2307.1663,59.6369 2308.5101,59.6369 Q2309.1351,59.6369 2309.7288,59.3712 Q2310.3226,59.09 2310.9476,58.5119 L2310.9476,61.2306 Z " fill="#000000"/><text fill="#000000" font-family="sans-serif" font-size="14" lengthAdjust="spacing" textLength="113.7021" x="2328.4788" y="60.4367">VendaController</text><line style="stroke:#181818;stroke-width:0.5;" x1="2155.16" x2="2582.9998" y1="71.59" y2="71.59"/><line style="stroke:#181818;stroke-width:0.5;" x1="2155.16" x2="2582.9998" y1="79.59" y2="79.59"/><ellipse cx="2165.16" cy="93.2384" fill="#84BE84" rx="3" ry="3" style="stroke:#038048;stroke-width:1;"/><text fill="#000000" font-family="sans-serif" font-size="14" lengthAdjust="spacing" textLength="403.8398" x="2174.16" y="96.5851">realizarVenda(vendaRequest: VendaRequestDTO): Venda</text></g><!--class ProdutoVendaDTO--><g class="entity" data-entity="ProdutoVendaDTO" data-source-line="44" data-uid="ent0009" id="entity_ProdutoVendaDTO"><rect fill="#F1F1F1" height="80.5938" rx="2.5" ry="2.5" style="stroke:#181818;stroke-width:0.5;" width="161.459" x="963.35" y="385.97"/><ellipse cx="978.35" cy="401.97" fill="#ADD1B2" rx="11" ry="11" style="stroke:#181818;stroke-width:1;"/><path d="M981.3188,407.6106 Q980.7406,407.9075 980.1,408.0481 Q979.4594,408.2044 978.7563,408.2044 Q976.2563,408.2044 974.9281,406.5637 Q973.6156,404.9075 973.6156,401.7825 Q973.6156,398.6575 974.9281,397.0012 Q976.2563,395.345 978.7563,395.345 Q979.4594,395.345 980.1,395.5012 Q980.7563,395.6575 981.3188,395.9544 L981.3188,398.6731 Q980.6938,398.095 980.1,397.8294 Q979.5063,397.5481 978.8813,397.5481 Q977.5375,397.5481 976.85,398.6262 Q976.1625,399.6887 976.1625,401.7825 Q976.1625,403.8762 976.85,404.9544 Q977.5375,406.0169 978.8813,406.0169 Q979.5063,406.0169 980.1,405.7512 Q980.6938,405.47 981.3188,404.8919 L981.3188,407.6106 Z " fill="#000000"/><text fill="#000000" font-family="sans-serif" font-size="14" lengthAdjust="spacing" textLength="129.459" x="992.35" y="406.8167">ProdutoVendaDTO</text><line style="stroke:#181818;stroke-width:0.5;" x1="964.35" x2="1123.809" y1="417.97" y2="417.97"/><ellipse cx="974.35" cy="431.6184" fill="none" rx="3" ry="3" style="stroke:#038048;stroke-width:1;"/><text fill="#000000" font-family="sans-serif" font-size="14" lengthAdjust="spacing" textLength="106.6133" x="983.35" y="434.9651">Long produtoId</text><ellipse cx="974.35" cy="447.9153" fill="none" rx="3" ry="3" style="stroke:#038048;stroke-width:1;"/><text fill="#000000" font-family="sans-serif" font-size="14" lengthAdjust="spacing" textLength="131.7217" x="983.35" y="451.262">double quantidade</text><line style="stroke:#181818;stroke-width:0.5;" x1="964.35" x2="1123.809" y1="458.5637" y2="458.5637"/></g><!--class VendaRequestDTO--><g class="entity" data-entity="VendaRequestDTO" data-source-line="49" data-uid="ent0010" id="entity_VendaRequestDTO"><rect fill="#F1F1F1" height="80.5938" rx="2.5" ry="2.5" style="stroke:#181818;stroke-width:0.5;" width="270.1592" x="7" y="220.93"/><ellipse cx="71.6406" cy="236.93" fill="#ADD1B2" rx="11" ry="11" style="stroke:#181818;stroke-width:1;"/><path d="M74.6094,242.5706 Q74.0313,242.8675 73.3906,243.0081 Q72.75,243.1644 72.0469,243.1644 Q69.5469,243.1644 68.2188,241.5238 Q66.9063,239.8675 66.9063,236.7425 Q66.9063,233.6175 68.2188,231.9613 Q69.5469,230.305 72.0469,230.305 Q72.75,230.305 73.3906,230.4613 Q74.0469,230.6175 74.6094,230.9144 L74.6094,233.6331 Q73.9844,233.055 73.3906,232.7894 Q72.7969,232.5081 72.1719,232.5081 Q70.8281,232.5081 70.1406,233.5863 Q69.4531,234.6488 69.4531,236.7425 Q69.4531,238.8363 70.1406,239.9144 Q70.8281,240.9769 72.1719,240.9769 Q72.7969,240.9769 73.3906,240.7113 Q73.9844,240.43 74.6094,239.8519 L74.6094,242.5706 Z " fill="#000000"/><text fill="#000000" font-family="sans-serif" font-size="14" lengthAdjust="spacing" textLength="132.3779" x="92.1406" y="241.7767">VendaRequestDTO</text><line style="stroke:#181818;stroke-width:0.5;" x1="8" x2="276.1592" y1="252.93" y2="252.93"/><ellipse cx="18" cy="266.5784" fill="none" rx="3" ry="3" style="stroke:#038048;stroke-width:1;"/><text fill="#000000" font-family="sans-serif" font-size="14" lengthAdjust="spacing" textLength="88.6211" x="27" y="269.9251">Long caixaId</text><ellipse cx="18" cy="282.8753" fill="none" rx="3" ry="3" style="stroke:#038048;stroke-width:1;"/><text fill="#000000" font-family="sans-serif" font-size="14" lengthAdjust="spacing" textLength="244.1592" x="27" y="286.222">List&lt;ProdutoVendaDTO&gt; produtos</text><line style="stroke:#181818;stroke-width:0.5;" x1="8" x2="276.1592" y1="293.5238" y2="293.5238"/></g><!--class GerenteService--><g class="entity" data-entity="GerenteService" data-source-line="54" data-uid="ent0011" id="entity_GerenteService"><rect fill="#F1F1F1" height="64.2969" rx="2.5" ry="2.5" style="stroke:#181818;stroke-width:0.5;" width="436.0811" x="1683.04" y="39.59"/><ellipse cx="1842.5566" cy="55.59" fill="#ADD1B2" rx="11" ry="11" style="stroke:#181818;stroke-width:1;"/><path d="M1845.5254,61.2306 Q1844.9472,61.5275 1844.3066,61.6681 Q1843.666,61.8244 1842.9629,61.8244 Q1840.4629,61.8244 1839.1347,60.1837 Q1837.8222,58.5275 1837.8222,55.4025 Q1837.8222,52.2775 1839.1347,50.6212 Q1840.4629,48.965 1842.9629,48.965 Q1843.666,48.965 1844.3066,49.1212 Q1844.9629,49.2775 1845.5254,49.5744 L1845.5254,52.2931 Q1844.9004,51.715 1844.3066,51.4494 Q1843.7129,51.1681 1843.0879,51.1681 Q1841.7441,51.1681 1841.0566,52.2462 Q1840.3691,53.3087 1840.3691,55.4025 Q1840.3691,57.4962 1841.0566,58.5744 Q1841.7441,59.6369 1843.0879,59.6369 Q1843.7129,59.6369 1844.3066,59.3712 Q1844.9004,59.09 1845.5254,58.5119 L1845.5254,61.2306 Z " fill="#000000"/><text fill="#000000" font-family="sans-serif" font-size="14" lengthAdjust="spacing" textLength="108.5479" x="1863.0566" y="60.4367">GerenteService</text><line style="stroke:#181818;stroke-width:0.5;" x1="1684.04" x2="2118.1211" y1="71.59" y2="71.59"/><line style="stroke:#181818;stroke-width:0.5;" x1="1684.04" x2="2118.1211" y1="79.59" y2="79.59"/><ellipse cx="1694.04" cy="93.2384" fill="#84BE84" rx="3" ry="3" style="stroke:#038048;stroke-width:1;"/><text fill="#000000" font-family="sans-serif" font-size="14" lengthAdjust="spacing" textLength="410.0811" x="1703.04" y="96.5851">adicionarProdutoComoGerente(produto: Produto): Produto</text></g><!--class ProdutoService--><g class="entity" data-entity="ProdutoService" data-source-line="58" data-uid="ent0012" id="entity_ProdutoService"><rect fill="#F1F1F1" height="129.4844" rx="2.5" ry="2.5" style="stroke:#181818;stroke-width:0.5;" width="427.6934" x="1687.23" y="196.48"/><ellipse cx="1843.667" cy="212.48" fill="#ADD1B2" rx="11" ry="11" style="stroke:#181818;stroke-width:1;"/><path d="M1846.6358,218.1206 Q1846.0576,218.4175 1845.417,218.5581 Q1844.7764,218.7144 1844.0733,218.7144 Q1841.5733,218.7144 1840.2451,217.0738 Q1838.9326,215.4175 1838.9326,212.2925 Q1838.9326,209.1675 1840.2451,207.5113 Q1841.5733,205.855 1844.0733,205.855 Q1844.7764,205.855 1845.417,206.0113 Q1846.0733,206.1675 1846.6358,206.4644 L1846.6358,209.1831 Q1846.0108,208.605 1845.417,208.3394 Q1844.8233,208.0581 1844.1983,208.0581 Q1842.8545,208.0581 1842.167,209.1363 Q1841.4795,210.1988 1841.4795,212.2925 Q1841.4795,214.3863 1842.167,215.4644 Q1842.8545,216.5269 1844.1983,216.5269 Q1844.8233,216.5269 1845.417,216.2613 Q1846.0108,215.98 1846.6358,215.4019 L1846.6358,218.1206 Z " fill="#000000"/><text fill="#000000" font-family="sans-serif" font-size="14" lengthAdjust="spacing" textLength="106.3193" x="1864.167" y="217.3267">ProdutoService</text><line style="stroke:#181818;stroke-width:0.5;" x1="1688.23" x2="2113.9234" y1="228.48" y2="228.48"/><line style="stroke:#181818;stroke-width:0.5;" x1="1688.23" x2="2113.9234" y1="236.48" y2="236.48"/><ellipse cx="1698.23" cy="250.1284" fill="#84BE84" rx="3" ry="3" style="stroke:#038048;stroke-width:1;"/><text fill="#000000" font-family="sans-serif" font-size="14" lengthAdjust="spacing" textLength="215.291" x="1707.23" y="253.4751">criarCaixa(caixa: Caixa): Caixa</text><ellipse cx="1698.23" cy="266.4253" fill="#84BE84" rx="3" ry="3" style="stroke:#038048;stroke-width:1;"/><text fill="#000000" font-family="sans-serif" font-size="14" lengthAdjust="spacing" textLength="351.5723" x="1707.23" y="269.772">listarProdutos(): ResponseEntity&lt;List&lt;Produto&gt;&gt;</text><ellipse cx="1698.23" cy="282.7222" fill="#84BE84" rx="3" ry="3" style="stroke:#038048;stroke-width:1;"/><text fill="#000000" font-family="sans-serif" font-size="14" lengthAdjust="spacing" textLength="279.6924" x="1707.23" y="286.0689">criarProduto(produto: Produto): Produto</text><ellipse cx="1698.23" cy="299.0191" fill="#84BE84" rx="3" ry="3" style="stroke:#038048;stroke-width:1;"/><text fill="#000000" font-family="sans-serif" font-size="14" lengthAdjust="spacing" textLength="401.6934" x="1707.23" y="302.3657">atualizarPreco(id: Long, novoPreco: BigDecimal): Produto</text><ellipse cx="1698.23" cy="315.3159" fill="#84BE84" rx="3" ry="3" style="stroke:#038048;stroke-width:1;"/><text fill="#000000" font-family="sans-serif" font-size="14" lengthAdjust="spacing" textLength="210.1914" x="1707.23" y="318.6626">deletarProduto(id: Long): void</text></g><!--class VendaService--><g class="entity" data-entity="VendaService" data-source-line="66" data-uid="ent0013" id="entity_VendaService"><rect fill="#F1F1F1" height="64.2969" rx="2.5" ry="2.5" style="stroke:#181818;stroke-width:0.5;" width="429.8398" x="2150.16" y="229.08"/><ellipse cx="2312.6947" cy="245.08" fill="#ADD1B2" rx="11" ry="11" style="stroke:#181818;stroke-width:1;"/><path d="M2315.6634,250.7206 Q2315.0853,251.0175 2314.4447,251.1581 Q2313.804,251.3144 2313.1009,251.3144 Q2310.6009,251.3144 2309.2728,249.6738 Q2307.9603,248.0175 2307.9603,244.8925 Q2307.9603,241.7675 2309.2728,240.1113 Q2310.6009,238.455 2313.1009,238.455 Q2313.804,238.455 2314.4447,238.6113 Q2315.1009,238.7675 2315.6634,239.0644 L2315.6634,241.7831 Q2315.0384,241.205 2314.4447,240.9394 Q2313.8509,240.6581 2313.2259,240.6581 Q2311.8822,240.6581 2311.1947,241.7363 Q2310.5072,242.7988 2310.5072,244.8925 Q2310.5072,246.9863 2311.1947,248.0644 Q2311.8822,249.1269 2313.2259,249.1269 Q2313.8509,249.1269 2314.4447,248.8613 Q2315.0384,248.58 2315.6634,248.0019 L2315.6634,250.7206 Z " fill="#000000"/><text fill="#000000" font-family="sans-serif" font-size="14" lengthAdjust="spacing" textLength="96.2705" x="2333.1947" y="249.9267">VendaService</text><line style="stroke:#181818;stroke-width:0.5;" x1="2151.16" x2="2578.9998" y1="261.08" y2="261.08"/><line style="stroke:#181818;stroke-width:0.5;" x1="2151.16" x2="2578.9998" y1="269.08" y2="269.08"/><ellipse cx="2161.16" cy="282.7284" fill="#84BE84" rx="3" ry="3" style="stroke:#038048;stroke-width:1;"/><text fill="#000000" font-family="sans-serif" font-size="14" lengthAdjust="spacing" textLength="403.8398" x="2170.16" y="286.0751">realizarVenda(vendaRequest: VendaRequestDTO): Venda</text></g><!--class CaixaRepository--><g class="entity" data-entity="CaixaRepository" data-source-line="70" data-uid="ent0014" id="entity_CaixaRepository"><rect fill="#F1F1F1" height="48" rx="2.5" ry="2.5" style="stroke:#181818;stroke-width:0.5;" width="146.1807" x="2096.99" y="402.26"/><ellipse cx="2111.99" cy="418.26" fill="#B4A7E5" rx="11" ry="11" style="stroke:#181818;stroke-width:1;"/><path d="M2107.9119,414.0256 L2107.9119,411.8694 L2115.3025,411.8694 L2115.3025,414.0256 L2112.8338,414.0256 L2112.8338,422.1038 L2115.3025,422.1038 L2115.3025,424.26 L2107.9119,424.26 L2107.9119,422.1038 L2110.3806,422.1038 L2110.3806,414.0256 L2107.9119,414.0256 Z " fill="#000000"/><text fill="#000000" font-family="sans-serif" font-size="14" font-style="italic" lengthAdjust="spacing" textLength="114.1807" x="2125.99" y="423.1067">CaixaRepository</text><line style="stroke:#181818;stroke-width:0.5;" x1="2097.99" x2="2242.1707" y1="434.26" y2="434.26"/><line style="stroke:#181818;stroke-width:0.5;" x1="2097.99" x2="2242.1707" y1="442.26" y2="442.26"/></g><!--class GerenteRepository--><g class="entity" data-entity="GerenteRepository" data-source-line="71" data-uid="ent0015" id="entity_GerenteRepository"><rect fill="#F1F1F1" height="48" rx="2.5" ry="2.5" style="stroke:#181818;stroke-width:0.5;" width="163.8789" x="312.14" y="237.22"/><ellipse cx="327.14" cy="253.22" fill="#B4A7E5" rx="11" ry="11" style="stroke:#181818;stroke-width:1;"/><path d="M323.0619,248.9856 L323.0619,246.8294 L330.4525,246.8294 L330.4525,248.9856 L327.9838,248.9856 L327.9838,257.0638 L330.4525,257.0638 L330.4525,259.22 L323.0619,259.22 L323.0619,257.0638 L325.5306,257.0638 L325.5306,248.9856 L323.0619,248.9856 Z " fill="#000000"/><text fill="#000000" font-family="sans-serif" font-size="14" font-style="italic" lengthAdjust="spacing" textLength="131.8789" x="341.14" y="258.0667">GerenteRepository</text><line style="stroke:#181818;stroke-width:0.5;" x1="313.14" x2="475.0189" y1="269.22" y2="269.22"/><line style="stroke:#181818;stroke-width:0.5;" x1="313.14" x2="475.0189" y1="277.22" y2="277.22"/></g><!--class ProdutoRepository--><g class="entity" data-entity="ProdutoRepository" data-source-line="72" data-uid="ent0016" id="entity_ProdutoRepository"><rect fill="#F1F1F1" height="64.2969" rx="2.5" ry="2.5" style="stroke:#181818;stroke-width:0.5;" width="296.874" x="1758.64" y="394.11"/><ellipse cx="1838.0018" cy="410.11" fill="#B4A7E5" rx="11" ry="11" style="stroke:#181818;stroke-width:1;"/><path d="M1833.9237,405.8756 L1833.9237,403.7194 L1841.3143,403.7194 L1841.3143,405.8756 L1838.8456,405.8756 L1838.8456,413.9538 L1841.3143,413.9538 L1841.3143,416.11 L1833.9237,416.11 L1833.9237,413.9538 L1836.3924,413.9538 L1836.3924,405.8756 L1833.9237,405.8756 Z " fill="#000000"/><text fill="#000000" font-family="sans-serif" font-size="14" font-style="italic" lengthAdjust="spacing" textLength="129.6504" x="1858.5018" y="414.9567">ProdutoRepository</text><line style="stroke:#181818;stroke-width:0.5;" x1="1759.64" x2="2054.514" y1="426.11" y2="426.11"/><line style="stroke:#181818;stroke-width:0.5;" x1="1759.64" x2="2054.514" y1="434.11" y2="434.11"/><ellipse cx="1769.64" cy="447.7584" fill="#84BE84" rx="3" ry="3" style="stroke:#038048;stroke-width:1;"/><text fill="#000000" font-family="sans-serif" font-size="14" lengthAdjust="spacing" textLength="270.874" x="1778.64" y="451.1051">findById(id: Long): Optional&lt;Produto&gt;</text></g><!--class VendaRepository--><g class="entity" data-entity="VendaRepository" data-source-line="75" data-uid="ent0017" id="entity_VendaRepository"><rect fill="#F1F1F1" height="48" rx="2.5" ry="2.5" style="stroke:#181818;stroke-width:0.5;" width="151.6016" x="2289.28" y="402.26"/><ellipse cx="2304.28" cy="418.26" fill="#B4A7E5" rx="11" ry="11" style="stroke:#181818;stroke-width:1;"/><path d="M2300.2019,414.0256 L2300.2019,411.8694 L2307.5925,411.8694 L2307.5925,414.0256 L2305.1238,414.0256 L2305.1238,422.1038 L2307.5925,422.1038 L2307.5925,424.26 L2300.2019,424.26 L2300.2019,422.1038 L2302.6706,422.1038 L2302.6706,414.0256 L2300.2019,414.0256 Z " fill="#000000"/><text fill="#000000" font-family="sans-serif" font-size="14" font-style="italic" lengthAdjust="spacing" textLength="119.6016" x="2318.28" y="423.1067">VendaRepository</text><line style="stroke:#181818;stroke-width:0.5;" x1="2290.28" x2="2439.8816" y1="434.26" y2="434.26"/><line style="stroke:#181818;stroke-width:0.5;" x1="2290.28" x2="2439.8816" y1="442.26" y2="442.26"/></g><!--link Caixa to Venda--><g class="link" data-entity-1="Caixa" data-entity-2="Venda" data-source-line="77" data-uid="lnk18" id="link_Caixa_Venda"><path codeLine="77" d="M1032.8,120.53 C1031.03,146.03 1030.86,177.55 1032.29,204.19 " fill="none" id="Caixa-Venda" style="stroke:#181818;stroke-width:1;"/><text fill="#000000" font-family="sans-serif" font-size="13" lengthAdjust="spacing" textLength="8.271" x="1022.7651" y="140.1704">1</text><text fill="#000000" font-family="sans-serif" font-size="13" lengthAdjust="spacing" textLength="6.5" x="1024.5184" y="193.3999">*</text></g><!--link Venda to Caixa--><g class="link" data-entity-1="Venda" data-entity-2="Caixa" data-source-line="82" data-uid="lnk23" id="link_Venda_Caixa"><path codeLine="82" d="M1056.56,204.19 C1058.08,177.55 1057.9,146.03 1056.02,120.53 " fill="none" id="Venda-Caixa" style="stroke:#181818;stroke-width:1;"/><text fill="#000000" font-family="sans-serif" font-size="13" lengthAdjust="spacing" textLength="8.271" x="1049.6105" y="193.3999">1</text><text fill="#000000" font-family="sans-serif" font-size="13" lengthAdjust="spacing" textLength="8.271" x="1049.1053" y="140.1704">1</text></g><!--reverse link Caixa to ProdutoVendaDTO--><g class="link" data-entity-1="Caixa" data-entity-2="ProdutoVendaDTO" data-source-line="78" data-uid="lnk19" id="link_Caixa_ProdutoVendaDTO"><path codeLine="78" d="M1125.1102,128.3063 C1149.2402,148.5663 1164.11,166.7 1177.08,196.48 C1200.06,249.24 1202.87,274.52 1177.08,325.97 C1164.87,350.31 1143.56,370.21 1121.52,385.63 " fill="none" id="Caixa-backto-ProdutoVendaDTO" style="stroke:#181818;stroke-width:1;"/><polygon fill="#181818" points="1115.92,120.59,1117.943,127.5115,1125.1102,128.3063,1123.0872,121.3847,1115.92,120.59" style="stroke:#181818;stroke-width:1;"/><text fill="#000000" font-family="sans-serif" font-size="13" lengthAdjust="spacing" textLength="8.271" x="1117.0544" y="140.2385">1</text><text fill="#000000" font-family="sans-serif" font-size="13" lengthAdjust="spacing" textLength="6.5" x="1127.4238" y="375.0357">*</text></g><!--link Produto to ProdutoVendaDTO--><g class="link" data-entity-1="Produto" data-entity-2="ProdutoVendaDTO" data-source-line="79" data-uid="lnk20" id="link_Produto_ProdutoVendaDTO"><path codeLine="79" d="M890.71,326.43 C921.68,346.39 954.91,367.8 982.49,385.57 " fill="none" id="Produto-ProdutoVendaDTO" style="stroke:#181818;stroke-width:1;"/><text fill="#000000" font-family="sans-serif" font-size="13" lengthAdjust="spacing" textLength="8.271" x="892.5855" y="346.0017">1</text><text fill="#000000" font-family="sans-serif" font-size="13" lengthAdjust="spacing" textLength="6.5" x="966.2359" y="374.9661">*</text></g><!--reverse link Venda to ProdutoVendaDTO--><g class="link" data-entity-1="Venda" data-entity-2="ProdutoVendaDTO" data-source-line="80" data-uid="lnk21" id="link_Venda_ProdutoVendaDTO"><path codeLine="80" d="M1044.08,329.88 C1044.08,352.11 1044.08,365.2 1044.08,385.54 " fill="none" id="Venda-backto-ProdutoVendaDTO" style="stroke:#181818;stroke-width:1;"/><polygon fill="#181818" points="1044.08,317.88,1040.08,323.88,1044.08,329.88,1048.08,323.88,1044.08,317.88" style="stroke:#181818;stroke-width:1;"/><text fill="#000000" font-family="sans-serif" font-size="13" lengthAdjust="spacing" textLength="8.271" x="1035.6095" y="337.774">1</text><text fill="#000000" font-family="sans-serif" font-size="13" lengthAdjust="spacing" textLength="6.5" x="1037.6418" y="374.9313">*</text></g><!--link Caixa to Produto--><g class="link" data-entity-1="Caixa" data-entity-2="Produto" data-source-line="81" data-uid="lnk22" id="link_Caixa_Produto"><path codeLine="81" d="M979.58,120.53 C948.55,143.53 910.89,171.44 877.42,196.24 " fill="none" id="Caixa-Produto" style="stroke:#181818;stroke-width:1;"/><text fill="#000000" font-family="sans-serif" font-size="13" lengthAdjust="spacing" textLength="8.271" x="962.3937" y="140.1704">1</text><text fill="#000000" font-family="sans-serif" font-size="13" lengthAdjust="spacing" textLength="6.5" x="880.5624" y="185.3864">*</text></g><!--link ProdutoService to CaixaRepository--><g class="link" data-entity-1="ProdutoService" data-entity-2="CaixaRepository" data-source-line="83" data-uid="lnk24" id="link_ProdutoService_CaixaRepository"><path codeLine="83" d="M2007.01,326.43 C2050.82,352.98 2098.88,382.11 2131.39,401.81 " fill="none" id="ProdutoService-CaixaRepository" style="stroke:#181818;stroke-width:1;"/><text fill="#000000" font-family="sans-serif" font-size="13" lengthAdjust="spacing" textLength="8.271" x="2009.5358" y="346.0017">1</text><text fill="#000000" font-family="sans-serif" font-size="13" lengthAdjust="spacing" textLength="8.271" x="2113.0173" y="391.1053">1</text></g><!--link ProdutoService to ProdutoRepository--><g class="link" data-entity-1="ProdutoService" data-entity-2="ProdutoRepository" data-source-line="84" data-uid="lnk25" id="link_ProdutoService_ProdutoRepository"><path codeLine="84" d="M1903.43,326.19 C1904.29,349.39 1905.21,374.57 1905.92,393.75 " fill="none" id="ProdutoService-ProdutoRepository" style="stroke:#181818;stroke-width:1;"/><text fill="#000000" font-family="sans-serif" font-size="13" lengthAdjust="spacing" textLength="8.271" x="1895.2647" y="346.1903">1</text><text fill="#000000" font-family="sans-serif" font-size="13" lengthAdjust="spacing" textLength="8.271" x="1896.9314" y="382.9533">1</text></g><!--link VendaService to ProdutoRepository--><g class="link" data-entity-1="VendaService" data-entity-2="ProdutoRepository" data-source-line="85" data-uid="lnk26" id="link_VendaService_ProdutoRepository"><path codeLine="85" d="M2276.23,293.85 C2195.33,322.65 2076.51,364.95 1995.68,393.72 " fill="none" id="VendaService-ProdutoRepository" style="stroke:#181818;stroke-width:1;"/><text fill="#000000" font-family="sans-serif" font-size="13" lengthAdjust="spacing" textLength="8.271" x="2251.1358" y="313.3266">1</text><text fill="#000000" font-family="sans-serif" font-size="13" lengthAdjust="spacing" textLength="8.271" x="2003.8333" y="383.1672">1</text></g><!--link VendaService to VendaRepository--><g class="link" data-entity-1="VendaService" data-entity-2="VendaRepository" data-source-line="86" data-uid="lnk27" id="link_VendaService_VendaRepository"><path codeLine="86" d="M2365.08,293.66 C2365.08,325.31 2365.08,373.39 2365.08,401.84 " fill="none" id="VendaService-VendaRepository" style="stroke:#181818;stroke-width:1;"/><text fill="#000000" font-family="sans-serif" font-size="13" lengthAdjust="spacing" textLength="8.271" x="2356.3433" y="313.3515">1</text><text fill="#000000" font-family="sans-serif" font-size="13" lengthAdjust="spacing" textLength="8.271" x="2356.1378" y="391.1426">1</text></g><!--link VendaService to CaixaRepository--><g class="link" data-entity-1="VendaService" data-entity-2="CaixaRepository" data-source-line="87" data-uid="lnk28" id="link_VendaService_CaixaRepository"><path codeLine="87" d="M2327.48,293.66 C2289.63,325.31 2232.12,373.39 2198.1,401.84 " fill="none" id="VendaService-CaixaRepository" style="stroke:#181818;stroke-width:1;"/><text fill="#000000" font-family="sans-serif" font-size="13" lengthAdjust="spacing" textLength="8.271" x="2311.5758" y="313.3515">1</text><text fill="#000000" font-family="sans-serif" font-size="13" lengthAdjust="spacing" textLength="8.271" x="2195.9878" y="391.1426">1</text></g><!--link GerenteService to ProdutoService--><g class="link" data-entity-1="GerenteService" data-entity-2="ProdutoService" data-source-line="88" data-uid="lnk29" id="link_GerenteService_ProdutoService"><path codeLine="88" d="M1901.08,104.12 C1901.08,129.14 1901.08,165 1901.08,196.05 " fill="none" id="GerenteService-ProdutoService" style="stroke:#181818;stroke-width:1;"/><text fill="#000000" font-family="sans-serif" font-size="13" lengthAdjust="spacing" textLength="8.271" x="1892.3191" y="124.0517">1</text><text fill="#000000" font-family="sans-serif" font-size="13" lengthAdjust="spacing" textLength="8.271" x="1892.6818" y="185.6294">1</text></g><!--link GerenteController to ProdutoService--><g class="link" data-entity-1="GerenteController" data-entity-2="ProdutoService" data-source-line="89" data-uid="lnk30" id="link_GerenteController_ProdutoService"><path codeLine="89" d="M1588.55,136.87 C1637.04,156.01 1690.19,176.98 1738.68,196.12 " fill="none" id="GerenteController-ProdutoService" style="stroke:#181818;stroke-width:1;"/><text fill="#000000" font-family="sans-serif" font-size="13" lengthAdjust="spacing" textLength="8.271" x="1596.9063" y="156.4335">1</text><text fill="#000000" font-family="sans-serif" font-size="13" lengthAdjust="spacing" textLength="8.271" x="1712.4952" y="185.2533">1</text></g><!--link VendaController to VendaService--><g class="link" data-entity-1="VendaController" data-entity-2="VendaService" data-source-line="90" data-uid="lnk31" id="link_VendaController_VendaService"><path codeLine="90" d="M2368.41,104.12 C2367.67,138.73 2366.49,194.09 2365.75,228.74 " fill="none" id="VendaController-VendaService" style="stroke:#181818;stroke-width:1;"/><text fill="#000000" font-family="sans-serif" font-size="13" lengthAdjust="spacing" textLength="8.271" x="2359.5173" y="124.0517">1</text><text fill="#000000" font-family="sans-serif" font-size="13" lengthAdjust="spacing" textLength="8.271" x="2357.1211" y="217.9472">1</text></g><!--SRC=[jLNBRgCm5Dtp5LPMIOSkPekgI0JS18a4H4WNtOmysAqi4PmQ4qrRzT_7s2OGqsH6bPe5VjodppbsYXBLDGWG_OF0kmFaxqVCgcT0iLuiw7D82hf79NXfK2KeylaUlP4AOMJSQItk7aY5qHmSsw5sFXodK7cNX9DAa4ypRmMdSbcnFUa3Kivm8zW_0zG6PitlafY-CC9arFA1auBjAYeGfqnRStfWGCXFMvHKpHwe7LqmXHaCeWSOks3Z9xy6oo3PR7ThFS-INUgxO04NKIZ7r0_zB98JFqXsonrqWSgrYfOHtCXL7ArJ-2ZjC8PvbcoY8951CD-kajG5goJBe_jibqSkkFUpjH-qgM8_o66YoYvXx8T93v62-bE0ObQWCaI2v7HF04O2XKHvZt0vefBnd0bKQfFclsY_8_82LWdEofBmhcWf6KVSK5LFPnx8I7rWLKsW94AytYb96FjyheCAJaynquCUlOxlsMasS5PDJLLJdbRep8pQ2Oa6bVIjpqgn1rf0NAcH8qjRxZtGdzekWab9n3XQkXsPXFGSy34AdEZgoZnLoi_8IqDguUaGimhpP6PsHZfNkzBXZ4u3JeGlgVoyixxCMHQ5MvTZI4XNSzuL6j_NBU57MfokBSAqeAmwGHMmFJEUrvYq3sjb_I-Elrzg0nL9lNohXYm0lYWWAc7dJqZcKJXbvC1gAXX_1UyV0wCXw9BPT3mqwwwUQ8KNhn4UdYKvY9R_yWIqCqnbUXtMSVI3Clav0RUtO78pCUttspTctnAbq_q1349j5_q0NaiogjvnreUs1ZbegLa2jUtzsQvuZW1rpZZ_agU5x4K_kqlh6ezh6uipVk8l-zhFeDsdyViB]--></g></svg>