<svg xmlns="http://www.w3.org/2000/svg" xmlns:xlink="http://www.w3.org/1999/xlink" contentStyleType="text/css" data-diagram-type="ACTIVITY" height="1853px" preserveAspectRatio="none" style="width:1406px;height:1853px;background:#FFFFFF;" version="1.1" viewBox="0 0 1406 1853" width="1406px" zoomAndPan="magnify"><defs/><g><rect fill="none" height="20.9531" style="stroke:none;stroke-width:1;" width="1373.1226" x="15" y="12.7451"/><ellipse cx="153.4639" cy="48.6982" fill="#222222" rx="10" ry="10" style="stroke:#222222;stroke-width:1;"/><rect fill="#F1F1F1" height="33.9688" rx="12.5" ry="12.5" style="stroke:#181818;stroke-width:0.5;" width="110.1113" x="98.4082" y="78.6982"/><text fill="#000000" font-family="sans-serif" font-size="12" lengthAdjust="spacing" textLength="90.1113" x="108.4082" y="99.8369">Listar Produtos</text><rect fill="#F1F1F1" height="33.9688" rx="12.5" ry="12.5" style="stroke:#181818;stroke-width:0.5;" width="258.3828" x="24.2725" y="132.667"/><text fill="#000000" font-family="sans-serif" font-size="12" lengthAdjust="spacing" textLength="238.3828" x="34.2725" y="153.8057">Chamar ProdutoService.listarProdutos()</text><ellipse cx="153.4639" cy="282.6045" fill="#222222" rx="10" ry="10" style="stroke:#222222;stroke-width:1;"/><rect fill="#F1F1F1" height="33.9688" rx="12.5" ry="12.5" style="stroke:#181818;stroke-width:0.5;" width="99.5293" x="103.6992" y="312.6045"/><text fill="#000000" font-family="sans-serif" font-size="12" lengthAdjust="spacing" textLength="79.5293" x="113.6992" y="333.7432">Criar Produto</text><rect fill="#F1F1F1" height="33.9688" rx="12.5" ry="12.5" style="stroke:#181818;stroke-width:0.5;" width="249.3711" x="28.7783" y="366.5732"/><text fill="#000000" font-family="sans-serif" font-size="12" lengthAdjust="spacing" textLength="229.3711" x="38.7783" y="387.7119">Chamar ProdutoService.criarProduto()</text><ellipse cx="153.4639" cy="516.5107" fill="#222222" rx="10" ry="10" style="stroke:#222222;stroke-width:1;"/><rect fill="#F1F1F1" height="33.9688" rx="12.5" ry="12.5" style="stroke:#181818;stroke-width:0.5;" width="86.2695" x="110.3291" y="546.5107"/><text fill="#000000" font-family="sans-serif" font-size="12" lengthAdjust="spacing" textLength="66.2695" x="120.3291" y="567.6494">Criar Caixa</text><rect fill="#F1F1F1" height="33.9688" rx="12.5" ry="12.5" style="stroke:#181818;stroke-width:0.5;" width="236.1113" x="35.4082" y="600.4795"/><text fill="#000000" font-family="sans-serif" font-size="12" lengthAdjust="spacing" textLength="216.1113" x="45.4082" y="621.6182">Chamar ProdutoService.criarCaixa()</text><ellipse cx="153.4639" cy="750.417" fill="#222222" rx="10" ry="10" style="stroke:#222222;stroke-width:1;"/><rect fill="#F1F1F1" height="33.9688" rx="12.5" ry="12.5" style="stroke:#181818;stroke-width:0.5;" width="110.4336" x="98.2471" y="780.417"/><text fill="#000000" font-family="sans-serif" font-size="12" lengthAdjust="spacing" textLength="90.4336" x="108.2471" y="801.5557">Atualizar Pre&#231;o</text><rect fill="#F1F1F1" height="33.9688" rx="12.5" ry="12.5" style="stroke:#181818;stroke-width:0.5;" width="261.2012" x="22.8633" y="834.3857"/><text fill="#000000" font-family="sans-serif" font-size="12" lengthAdjust="spacing" textLength="241.2012" x="32.8633" y="855.5244">Chamar ProdutoService.atualizarPreco()</text><ellipse cx="153.4639" cy="984.3232" fill="#222222" rx="10" ry="10" style="stroke:#222222;stroke-width:1;"/><rect fill="#F1F1F1" height="33.9688" rx="12.5" ry="12.5" style="stroke:#181818;stroke-width:0.5;" width="114.9277" x="96" y="1014.3232"/><text fill="#000000" font-family="sans-serif" font-size="12" lengthAdjust="spacing" textLength="94.9277" x="106" y="1035.4619">Deletar Produto</text><rect fill="#F1F1F1" height="33.9688" rx="12.5" ry="12.5" style="stroke:#181818;stroke-width:0.5;" width="264.9277" x="21" y="1068.292"/><text fill="#000000" font-family="sans-serif" font-size="12" lengthAdjust="spacing" textLength="244.9277" x="31" y="1089.4307">Chamar ProdutoService.deletarProduto()</text><line style="stroke:#000000;stroke-width:1.5;" x1="15" x2="15" y1="12.7451" y2="1841.917"/><rect fill="#F1F1F1" height="33.9688" rx="12.5" ry="12.5" style="stroke:#181818;stroke-width:0.5;" width="177.4297" x="297.1143" y="186.6357"/><text fill="#000000" font-family="sans-serif" font-size="12" lengthAdjust="spacing" textLength="157.4297" x="307.1143" y="207.7744">Retornar lista de produtos</text><ellipse cx="385.8291" cy="251.6045" fill="none" rx="11" ry="11" style="stroke:#222222;stroke-width:1;"/><ellipse cx="385.8291" cy="251.6045" fill="#222222" rx="6" ry="6" style="stroke:#222222;stroke-width:1;"/><rect fill="#F1F1F1" height="33.9688" rx="12.5" ry="12.5" style="stroke:#181818;stroke-width:0.5;" width="118.959" x="326.3496" y="420.542"/><text fill="#000000" font-family="sans-serif" font-size="12" lengthAdjust="spacing" textLength="98.959" x="336.3496" y="441.6807">Persistir Produto</text><ellipse cx="385.8291" cy="485.5107" fill="none" rx="11" ry="11" style="stroke:#222222;stroke-width:1;"/><ellipse cx="385.8291" cy="485.5107" fill="#222222" rx="6" ry="6" style="stroke:#222222;stroke-width:1;"/><rect fill="#F1F1F1" height="33.9688" rx="12.5" ry="12.5" style="stroke:#181818;stroke-width:0.5;" width="105.6992" x="332.9795" y="654.4482"/><text fill="#000000" font-family="sans-serif" font-size="12" lengthAdjust="spacing" textLength="85.6992" x="342.9795" y="675.5869">Persistir Caixa</text><ellipse cx="385.8291" cy="719.417" fill="none" rx="11" ry="11" style="stroke:#222222;stroke-width:1;"/><ellipse cx="385.8291" cy="719.417" fill="#222222" rx="6" ry="6" style="stroke:#222222;stroke-width:1;"/><rect fill="#F1F1F1" height="33.9688" rx="12.5" ry="12.5" style="stroke:#181818;stroke-width:0.5;" width="179.8027" x="295.9277" y="888.3545"/><text fill="#000000" font-family="sans-serif" font-size="12" lengthAdjust="spacing" textLength="159.8027" x="305.9277" y="909.4932">Atualizar Pre&#231;o do Produto</text><ellipse cx="385.8291" cy="953.3232" fill="none" rx="11" ry="11" style="stroke:#222222;stroke-width:1;"/><ellipse cx="385.8291" cy="953.3232" fill="#222222" rx="6" ry="6" style="stroke:#222222;stroke-width:1;"/><rect fill="#F1F1F1" height="33.9688" rx="12.5" ry="12.5" style="stroke:#181818;stroke-width:0.5;" width="114.9277" x="328.3652" y="1122.2607"/><text fill="#000000" font-family="sans-serif" font-size="12" lengthAdjust="spacing" textLength="94.9277" x="338.3652" y="1143.3994">Deletar Produto</text><ellipse cx="385.8291" cy="1187.2295" fill="none" rx="11" ry="11" style="stroke:#222222;stroke-width:1;"/><ellipse cx="385.8291" cy="1187.2295" fill="#222222" rx="6" ry="6" style="stroke:#222222;stroke-width:1;"/><line style="stroke:#000000;stroke-width:1.5;" x1="289.9277" x2="289.9277" y1="12.7451" y2="1841.917"/><ellipse cx="610.6885" cy="1218.2295" fill="#222222" rx="10" ry="10" style="stroke:#222222;stroke-width:1;"/><rect fill="#F1F1F1" height="33.9688" rx="12.5" ry="12.5" style="stroke:#181818;stroke-width:0.5;" width="110.3105" x="555.5332" y="1248.2295"/><text fill="#000000" font-family="sans-serif" font-size="12" lengthAdjust="spacing" textLength="90.3105" x="565.5332" y="1269.3682">Realizar Venda</text><rect fill="#F1F1F1" height="33.9688" rx="12.5" ry="12.5" style="stroke:#181818;stroke-width:0.5;" width="249.916" x="485.7305" y="1302.1982"/><text fill="#000000" font-family="sans-serif" font-size="12" lengthAdjust="spacing" textLength="229.916" x="495.7305" y="1323.3369">Chamar VendaService.realizarVenda()</text><line style="stroke:#000000;stroke-width:1.5;" x1="479.7305" x2="479.7305" y1="12.7451" y2="1841.917"/><rect fill="#F1F1F1" height="33.9688" rx="12.5" ry="12.5" style="stroke:#181818;stroke-width:0.5;" width="287.5859" x="745.6465" y="1356.167"/><text fill="#000000" font-family="sans-serif" font-size="12" lengthAdjust="spacing" textLength="267.5859" x="755.6465" y="1377.3057">Iterar sobre produtos em VendaRequestDTO</text><rect fill="#F1F1F1" height="33.9688" rx="12.5" ry="12.5" style="stroke:#181818;stroke-width:0.5;" width="213.5059" x="782.6865" y="1410.1357"/><text fill="#000000" font-family="sans-serif" font-size="12" lengthAdjust="spacing" textLength="193.5059" x="792.6865" y="1431.2744">Verificar Quantidade do Produto</text><rect fill="#F1F1F1" height="33.9688" rx="12.5" ry="12.5" style="stroke:#181818;stroke-width:0.5;" width="198.5234" x="790.1777" y="1464.1045"/><text fill="#000000" font-family="sans-serif" font-size="12" lengthAdjust="spacing" textLength="178.5234" x="800.1777" y="1485.2432">Calcular Valor Total da Venda</text><rect fill="#F1F1F1" height="33.9688" rx="12.5" ry="12.5" style="stroke:#181818;stroke-width:0.5;" width="216.3301" x="781.2744" y="1518.0732"/><text fill="#000000" font-family="sans-serif" font-size="12" lengthAdjust="spacing" textLength="196.3301" x="791.2744" y="1539.2119">Atualizar Quantidade do Produto</text><rect fill="#F1F1F1" height="33.9688" rx="12.5" ry="12.5" style="stroke:#181818;stroke-width:0.5;" width="208.7715" x="785.0537" y="1658.0107"/><text fill="#000000" font-family="sans-serif" font-size="12" lengthAdjust="spacing" textLength="188.7715" x="795.0537" y="1679.1494">Atualizar Caixa com Valor Total</text><rect fill="#F1F1F1" height="33.9688" rx="12.5" ry="12.5" style="stroke:#181818;stroke-width:0.5;" width="172.666" x="803.1064" y="1711.9795"/><text fill="#000000" font-family="sans-serif" font-size="12" lengthAdjust="spacing" textLength="152.666" x="813.1064" y="1733.1182">Persistir Caixa Atualizado</text><line style="stroke:#000000;stroke-width:1.5;" x1="739.6465" x2="739.6465" y1="12.7451" y2="1841.917"/><rect fill="#F1F1F1" height="33.9688" rx="12.5" ry="12.5" style="stroke:#181818;stroke-width:0.5;" width="175.2559" x="1043.2324" y="1572.042"/><text fill="#000000" font-family="sans-serif" font-size="12" lengthAdjust="spacing" textLength="155.2559" x="1053.2324" y="1593.1807">Salvar Produto Atualizado</text><ellipse cx="1130.8604" cy="1637.0107" fill="none" rx="11" ry="11" style="stroke:#222222;stroke-width:1;"/><ellipse cx="1130.8604" cy="1637.0107" fill="#222222" rx="6" ry="6" style="stroke:#222222;stroke-width:1;"/><line style="stroke:#000000;stroke-width:1.5;" x1="1037.2324" x2="1037.2324" y1="12.7451" y2="1841.917"/><rect fill="#F1F1F1" height="33.9688" rx="12.5" ry="12.5" style="stroke:#181818;stroke-width:0.5;" width="110.3457" x="1250.2021" y="1765.9482"/><text fill="#000000" font-family="sans-serif" font-size="12" lengthAdjust="spacing" textLength="90.3457" x="1260.2021" y="1787.0869">Persistir Venda</text><ellipse cx="1305.375" cy="1830.917" fill="none" rx="11" ry="11" style="stroke:#222222;stroke-width:1;"/><ellipse cx="1305.375" cy="1830.917" fill="#222222" rx="6" ry="6" style="stroke:#222222;stroke-width:1;"/><line style="stroke:#000000;stroke-width:1.5;" x1="1222.4883" x2="1222.4883" y1="12.7451" y2="1841.917"/><line style="stroke:#000000;stroke-width:1.5;" x1="1386.2617" x2="1386.2617" y1="12.7451" y2="1841.917"/><line style="stroke:#181818;stroke-width:1;" x1="153.4639" x2="153.4639" y1="58.6982" y2="78.6982"/><polygon fill="#181818" points="149.4639,68.6982,153.4639,78.6982,157.4639,68.6982,153.4639,72.6982" style="stroke:#181818;stroke-width:1;"/><line style="stroke:#181818;stroke-width:1;" x1="153.4639" x2="153.4639" y1="112.667" y2="132.667"/><polygon fill="#181818" points="149.4639,122.667,153.4639,132.667,157.4639,122.667,153.4639,126.667" style="stroke:#181818;stroke-width:1;"/><line style="stroke:#181818;stroke-width:1;" x1="153.4639" x2="153.4639" y1="292.6045" y2="312.6045"/><polygon fill="#181818" points="149.4639,302.6045,153.4639,312.6045,157.4639,302.6045,153.4639,306.6045" style="stroke:#181818;stroke-width:1;"/><line style="stroke:#181818;stroke-width:1;" x1="153.4639" x2="153.4639" y1="346.5732" y2="366.5732"/><polygon fill="#181818" points="149.4639,356.5732,153.4639,366.5732,157.4639,356.5732,153.4639,360.5732" style="stroke:#181818;stroke-width:1;"/><line style="stroke:#181818;stroke-width:1;" x1="153.4639" x2="153.4639" y1="526.5107" y2="546.5107"/><polygon fill="#181818" points="149.4639,536.5107,153.4639,546.5107,157.4639,536.5107,153.4639,540.5107" style="stroke:#181818;stroke-width:1;"/><line style="stroke:#181818;stroke-width:1;" x1="153.4639" x2="153.4639" y1="580.4795" y2="600.4795"/><polygon fill="#181818" points="149.4639,590.4795,153.4639,600.4795,157.4639,590.4795,153.4639,594.4795" style="stroke:#181818;stroke-width:1;"/><line style="stroke:#181818;stroke-width:1;" x1="153.4639" x2="153.4639" y1="760.417" y2="780.417"/><polygon fill="#181818" points="149.4639,770.417,153.4639,780.417,157.4639,770.417,153.4639,774.417" style="stroke:#181818;stroke-width:1;"/><line style="stroke:#181818;stroke-width:1;" x1="153.4639" x2="153.4639" y1="814.3857" y2="834.3857"/><polygon fill="#181818" points="149.4639,824.3857,153.4639,834.3857,157.4639,824.3857,153.4639,828.3857" style="stroke:#181818;stroke-width:1;"/><line style="stroke:#181818;stroke-width:1;" x1="153.4639" x2="153.4639" y1="994.3232" y2="1014.3232"/><polygon fill="#181818" points="149.4639,1004.3232,153.4639,1014.3232,157.4639,1004.3232,153.4639,1008.3232" style="stroke:#181818;stroke-width:1;"/><line style="stroke:#181818;stroke-width:1;" x1="153.4639" x2="153.4639" y1="1048.292" y2="1068.292"/><polygon fill="#181818" points="149.4639,1058.292,153.4639,1068.292,157.4639,1058.292,153.4639,1062.292" style="stroke:#181818;stroke-width:1;"/><line style="stroke:#181818;stroke-width:1;" x1="385.8291" x2="385.8291" y1="220.6045" y2="240.6045"/><polygon fill="#181818" points="381.8291,230.6045,385.8291,240.6045,389.8291,230.6045,385.8291,234.6045" style="stroke:#181818;stroke-width:1;"/><line style="stroke:#181818;stroke-width:1;" x1="385.8291" x2="385.8291" y1="454.5107" y2="474.5107"/><polygon fill="#181818" points="381.8291,464.5107,385.8291,474.5107,389.8291,464.5107,385.8291,468.5107" style="stroke:#181818;stroke-width:1;"/><line style="stroke:#181818;stroke-width:1;" x1="385.8291" x2="385.8291" y1="688.417" y2="708.417"/><polygon fill="#181818" points="381.8291,698.417,385.8291,708.417,389.8291,698.417,385.8291,702.417" style="stroke:#181818;stroke-width:1;"/><line style="stroke:#181818;stroke-width:1;" x1="385.8291" x2="385.8291" y1="922.3232" y2="942.3232"/><polygon fill="#181818" points="381.8291,932.3232,385.8291,942.3232,389.8291,932.3232,385.8291,936.3232" style="stroke:#181818;stroke-width:1;"/><line style="stroke:#181818;stroke-width:1;" x1="385.8291" x2="385.8291" y1="1156.2295" y2="1176.2295"/><polygon fill="#181818" points="381.8291,1166.2295,385.8291,1176.2295,389.8291,1166.2295,385.8291,1170.2295" style="stroke:#181818;stroke-width:1;"/><line style="stroke:#181818;stroke-width:1;" x1="610.6885" x2="610.6885" y1="1228.2295" y2="1248.2295"/><polygon fill="#181818" points="606.6885,1238.2295,610.6885,1248.2295,614.6885,1238.2295,610.6885,1242.2295" style="stroke:#181818;stroke-width:1;"/><line style="stroke:#181818;stroke-width:1;" x1="610.6885" x2="610.6885" y1="1282.1982" y2="1302.1982"/><polygon fill="#181818" points="606.6885,1292.1982,610.6885,1302.1982,614.6885,1292.1982,610.6885,1296.1982" style="stroke:#181818;stroke-width:1;"/><line style="stroke:#181818;stroke-width:1;" x1="889.4395" x2="889.4395" y1="1390.1357" y2="1410.1357"/><polygon fill="#181818" points="885.4395,1400.1357,889.4395,1410.1357,893.4395,1400.1357,889.4395,1404.1357" style="stroke:#181818;stroke-width:1;"/><line style="stroke:#181818;stroke-width:1;" x1="889.4395" x2="889.4395" y1="1444.1045" y2="1464.1045"/><polygon fill="#181818" points="885.4395,1454.1045,889.4395,1464.1045,893.4395,1454.1045,889.4395,1458.1045" style="stroke:#181818;stroke-width:1;"/><line style="stroke:#181818;stroke-width:1;" x1="889.4395" x2="889.4395" y1="1498.0732" y2="1518.0732"/><polygon fill="#181818" points="885.4395,1508.0732,889.4395,1518.0732,893.4395,1508.0732,889.4395,1512.0732" style="stroke:#181818;stroke-width:1;"/><line style="stroke:#181818;stroke-width:1;" x1="889.4395" x2="889.4395" y1="1691.9795" y2="1711.9795"/><polygon fill="#181818" points="885.4395,1701.9795,889.4395,1711.9795,893.4395,1701.9795,889.4395,1705.9795" style="stroke:#181818;stroke-width:1;"/><line style="stroke:#181818;stroke-width:1;" x1="1130.8604" x2="1130.8604" y1="1606.0107" y2="1626.0107"/><polygon fill="#181818" points="1126.8604,1616.0107,1130.8604,1626.0107,1134.8604,1616.0107,1130.8604,1620.0107" style="stroke:#181818;stroke-width:1;"/><line style="stroke:#181818;stroke-width:1;" x1="1305.375" x2="1305.375" y1="1799.917" y2="1819.917"/><polygon fill="#181818" points="1301.375,1809.917,1305.375,1819.917,1309.375,1809.917,1305.375,1813.917" style="stroke:#181818;stroke-width:1;"/><line style="stroke:#181818;stroke-width:1;" x1="153.4639" x2="153.4639" y1="166.6357" y2="171.6357"/><line style="stroke:#181818;stroke-width:1;" x1="153.4639" x2="385.8291" y1="171.6357" y2="171.6357"/><line style="stroke:#181818;stroke-width:1;" x1="385.8291" x2="385.8291" y1="171.6357" y2="186.6357"/><polygon fill="#181818" points="381.8291,176.6357,385.8291,186.6357,389.8291,176.6357,385.8291,180.6357" style="stroke:#181818;stroke-width:1;"/><line style="stroke:#181818;stroke-width:1;" x1="153.4639" x2="153.4639" y1="400.542" y2="405.542"/><line style="stroke:#181818;stroke-width:1;" x1="153.4639" x2="385.8291" y1="405.542" y2="405.542"/><line style="stroke:#181818;stroke-width:1;" x1="385.8291" x2="385.8291" y1="405.542" y2="420.542"/><polygon fill="#181818" points="381.8291,410.542,385.8291,420.542,389.8291,410.542,385.8291,414.542" style="stroke:#181818;stroke-width:1;"/><line style="stroke:#181818;stroke-width:1;" x1="153.4639" x2="153.4639" y1="634.4482" y2="639.4482"/><line style="stroke:#181818;stroke-width:1;" x1="153.4639" x2="385.8291" y1="639.4482" y2="639.4482"/><line style="stroke:#181818;stroke-width:1;" x1="385.8291" x2="385.8291" y1="639.4482" y2="654.4482"/><polygon fill="#181818" points="381.8291,644.4482,385.8291,654.4482,389.8291,644.4482,385.8291,648.4482" style="stroke:#181818;stroke-width:1;"/><line style="stroke:#181818;stroke-width:1;" x1="153.4639" x2="153.4639" y1="868.3545" y2="873.3545"/><line style="stroke:#181818;stroke-width:1;" x1="153.4639" x2="385.8291" y1="873.3545" y2="873.3545"/><line style="stroke:#181818;stroke-width:1;" x1="385.8291" x2="385.8291" y1="873.3545" y2="888.3545"/><polygon fill="#181818" points="381.8291,878.3545,385.8291,888.3545,389.8291,878.3545,385.8291,882.3545" style="stroke:#181818;stroke-width:1;"/><line style="stroke:#181818;stroke-width:1;" x1="153.4639" x2="153.4639" y1="1102.2607" y2="1107.2607"/><line style="stroke:#181818;stroke-width:1;" x1="153.4639" x2="385.8291" y1="1107.2607" y2="1107.2607"/><line style="stroke:#181818;stroke-width:1;" x1="385.8291" x2="385.8291" y1="1107.2607" y2="1122.2607"/><polygon fill="#181818" points="381.8291,1112.2607,385.8291,1122.2607,389.8291,1112.2607,385.8291,1116.2607" style="stroke:#181818;stroke-width:1;"/><line style="stroke:#181818;stroke-width:1;" x1="610.6885" x2="610.6885" y1="1336.167" y2="1341.167"/><line style="stroke:#181818;stroke-width:1;" x1="610.6885" x2="889.4395" y1="1341.167" y2="1341.167"/><line style="stroke:#181818;stroke-width:1;" x1="889.4395" x2="889.4395" y1="1341.167" y2="1356.167"/><polygon fill="#181818" points="885.4395,1346.167,889.4395,1356.167,893.4395,1346.167,889.4395,1350.167" style="stroke:#181818;stroke-width:1;"/><line style="stroke:#181818;stroke-width:1;" x1="889.4395" x2="889.4395" y1="1552.042" y2="1557.042"/><line style="stroke:#181818;stroke-width:1;" x1="889.4395" x2="1130.8604" y1="1557.042" y2="1557.042"/><line style="stroke:#181818;stroke-width:1;" x1="1130.8604" x2="1130.8604" y1="1557.042" y2="1572.042"/><polygon fill="#181818" points="1126.8604,1562.042,1130.8604,1572.042,1134.8604,1562.042,1130.8604,1566.042" style="stroke:#181818;stroke-width:1;"/><line style="stroke:#181818;stroke-width:1;" x1="889.4395" x2="889.4395" y1="1745.9482" y2="1750.9482"/><line style="stroke:#181818;stroke-width:1;" x1="889.4395" x2="1305.375" y1="1750.9482" y2="1750.9482"/><line style="stroke:#181818;stroke-width:1;" x1="1305.375" x2="1305.375" y1="1750.9482" y2="1765.9482"/><polygon fill="#181818" points="1301.375,1755.9482,1305.375,1765.9482,1309.375,1755.9482,1305.375,1759.9482" style="stroke:#181818;stroke-width:1;"/><text fill="#000000" font-family="sans-serif" font-size="18" lengthAdjust="spacing" textLength="161.9736" x="71.4771" y="29.4531">GerenteController</text><text fill="#000000" font-family="sans-serif" font-size="18" lengthAdjust="spacing" textLength="136.6963" x="316.481" y="29.4531">ProdutoService</text><text fill="#000000" font-family="sans-serif" font-size="18" lengthAdjust="spacing" textLength="146.1885" x="536.5942" y="29.4531">VendaController</text><text fill="#000000" font-family="sans-serif" font-size="18" lengthAdjust="spacing" textLength="123.7764" x="826.5513" y="29.4531">VendaService</text><text fill="#000000" font-family="sans-serif" font-size="18" lengthAdjust="spacing" textLength="166.6934" x="1046.5137" y="29.4531">ProdutoRepository</text><text fill="#000000" font-family="sans-serif" font-size="18" lengthAdjust="spacing" textLength="153.7734" x="1227.4883" y="29.4531">VendaRepository</text><!--SRC=[bPD1JiCm44NtEOMNiE40wGgb4a92egHLzqCy24jk7CQJ2b3kmq6u68xhr4bRjsMNJFxyzpsUT0z8M3CMfcOoMYDrcMKWpl8drJ-81HdPih6pB2_UOHChIwIjgl1EUzqWkxcTPLatbNHPNY8RgbspLmk9ejdxMZQDwqadAKX5R397rQj2BP5YWMGTNutCheGNe3xXFDfBBeA3qKNiFRUWrRTduUzF-jWm29skIXtyq4r8yuyHp54ZNt43SgSxVmT7PW6_nbh22NY98RaNHBP_7SWKHBwu0u-_E-mZ8xakQrufxfx0pSwdn8yMBSzNpmwmHb9lgdBgbnPgLXBSkeu7bXUWgrRt8K0R4Yl3e8M4VSGuxeJ3VYubDiOgzszykOnBqDiu6J6uo8CXdRfMlrQYCfjnfDdHuaqyWzqaGjI7i_JWFm00]--></g></svg>